<svg width="26" height="24" viewBox="0 0 26 24" fill="none" xmlns="http://www.w3.org/2000/svg">
<path d="M12.3817 2.48118C12.5457 2.31732 12.7681 2.22528 13 2.22528C13.2319 2.22528 13.4543 2.31732 13.6183 2.48118L23.7567 12.6195C23.8374 12.703 23.934 12.7697 24.0408 12.8155C24.1476 12.8613 24.2624 12.8854 24.3786 12.8863C24.4948 12.8873 24.61 12.8651 24.7175 12.821C24.825 12.777 24.9226 12.712 25.0048 12.6298C25.0869 12.5476 25.1518 12.4498 25.1958 12.3423C25.2397 12.2347 25.2618 12.1195 25.2607 12.0033C25.2597 11.8871 25.2355 11.7723 25.1896 11.6656C25.1437 11.5589 25.0769 11.4624 24.9933 11.3817L14.8562 1.24334C14.6124 0.999586 14.323 0.806227 14.0046 0.674307C13.6861 0.542386 13.3447 0.474487 13 0.474487C12.6553 0.474487 12.3139 0.542386 11.9955 0.674307C11.677 0.806227 11.3876 0.999586 11.1438 1.24334L1.0055 11.3817C0.921972 11.4624 0.855359 11.559 0.809552 11.6658C0.763745 11.7726 0.739662 11.8874 0.738708 12.0036C0.737753 12.1198 0.759947 12.235 0.803993 12.3425C0.848039 12.45 0.913057 12.5477 0.995251 12.6298C1.07745 12.7119 1.17517 12.7768 1.28273 12.8208C1.39028 12.8647 1.50551 12.8868 1.62169 12.8857C1.73787 12.8847 1.85268 12.8605 1.95941 12.8146C2.06614 12.7687 2.16266 12.702 2.24334 12.6183L12.3817 2.48118Z" fill="#ED1C24"/>
<path d="M13 4.33734L22.5188 13.8562C22.5538 13.8904 22.5892 13.9238 22.625 13.9565V21.1875C22.625 22.395 21.645 23.375 20.4375 23.375H16.5C16.2679 23.375 16.0454 23.2828 15.8813 23.1187C15.7172 22.9546 15.625 22.7321 15.625 22.5V17.25C15.625 17.0179 15.5328 16.7954 15.3687 16.6313C15.2046 16.4672 14.9821 16.375 14.75 16.375H11.25C11.0179 16.375 10.7954 16.4672 10.6313 16.6313C10.4672 16.7954 10.375 17.0179 10.375 17.25V22.5C10.375 22.7321 10.2828 22.9546 10.1187 23.1187C9.95462 23.2828 9.73206 23.375 9.5 23.375H5.5625C4.98234 23.375 4.42594 23.1445 4.0157 22.7343C3.60547 22.3241 3.375 21.7677 3.375 21.1875V13.9565L3.48117 13.8562L13 4.33734Z" fill="#ED1C24"/>
</svg>
