<svg width="207" height="265" viewBox="0 0 207 265" fill="none" xmlns="http://www.w3.org/2000/svg">
<path d="M180.322 257H199.284" stroke="#368BFF" stroke-width="2"/>
<path d="M180.322 248.15H199.284" stroke="#368BFF" stroke-width="2"/>
<path d="M180.322 239.301H199.284" stroke="#368BFF" stroke-width="2"/>
<path d="M180.322 230.452H199.284" stroke="#368BFF" stroke-width="2"/>
<path d="M174 221.603H199.283" stroke="#368BFF" stroke-width="2"/>
<path d="M180.322 212.754H199.284" stroke="#368BFF" stroke-width="2"/>
<path d="M180.322 203.904H199.284" stroke="#368BFF" stroke-width="2"/>
<path d="M180.322 195.055H199.284" stroke="#368BFF" stroke-width="2"/>
<path d="M180.322 186.207H199.284" stroke="#368BFF" stroke-width="2"/>
<path d="M174 177.357H199.283" stroke="#368BFF" stroke-width="2"/>
<path d="M180.322 168.508H199.284" stroke="#368BFF" stroke-width="2"/>
<path d="M180.322 159.659H199.284" stroke="#368BFF" stroke-width="2"/>
<path d="M180.322 150.81H199.284" stroke="#333333" stroke-width="2"/>
<path d="M180.322 141.961H199.284" stroke="#333333" stroke-width="2"/>
<path d="M174 133.111H199.283" stroke="#333333" stroke-width="2"/>
<path d="M180.322 124.889H199.284" stroke="#333333" stroke-width="2"/>
<path d="M180.322 116.039H199.284" stroke="#333333" stroke-width="2"/>
<path d="M180.322 107.19H199.284" stroke="#333333" stroke-width="2"/>
<path d="M180.322 98.3409H199.284" stroke="#333333" stroke-width="2"/>
<path d="M174 89.4916H199.283" stroke="#333333" stroke-width="2"/>
<path d="M180.322 80.6428H199.284" stroke="#333333" stroke-width="2"/>
<path d="M180.322 71.7929H199.284" stroke="#333333" stroke-width="2"/>
<path d="M180.322 62.944H199.284" stroke="#333333" stroke-width="2"/>
<path d="M180.322 54.0951H199.284" stroke="#333333" stroke-width="2"/>
<path d="M174 45.2458H199.283" stroke="#333333" stroke-width="2"/>
<path d="M180.322 36.397H199.284" stroke="#333333" stroke-width="2"/>
<path d="M180.322 27.5476H199.284" stroke="#333333" stroke-width="2"/>
<path d="M180.322 18.6982H199.284" stroke="#333333" stroke-width="2"/>
<path d="M180.322 9.84937L199.284 9.84937" stroke="#333333" stroke-width="2"/>
<path d="M174 1L199.283 1" stroke="#333333" stroke-width="2"/>
<path d="M47.7839 221.314L1 264H207L207 189.075L163.234 162.453L147.388 181.1L105.886 193.232L80.2308 213.227L47.7839 221.314Z" fill="url(#paint0_linear_388_303)"/>
<path d="M1 264L47.7511 221.314L80.1752 213.227L105.813 193.232L147.286 181.1L163.121 162.453L206.131 188.8" stroke="#368BFF" stroke-width="2"/>
<defs>
<linearGradient id="paint0_linear_388_303" x1="104" y1="162.453" x2="104" y2="264" gradientUnits="userSpaceOnUse">
<stop offset="0.390625" stop-color="#368BFF" stop-opacity="0.7"/>
<stop offset="1" stop-color="#368BFF" stop-opacity="0"/>
</linearGradient>
</defs>
</svg>
