<svg width="206" height="264" viewBox="0 0 206 264" fill="none" xmlns="http://www.w3.org/2000/svg">
<path d="M179.322 257H198.284" stroke="#7AC241" stroke-width="2"/>
<path d="M179.322 248.15H198.284" stroke="#7AC241" stroke-width="2"/>
<path d="M179.322 239.301H198.284" stroke="#7AC241" stroke-width="2"/>
<path d="M179.322 230.452H198.284" stroke="#7AC241" stroke-width="2"/>
<path d="M173 221.603H198.283" stroke="#7AC241" stroke-width="2"/>
<path d="M179.322 212.754H198.284" stroke="#7AC241" stroke-width="2"/>
<path d="M179.322 203.904H198.284" stroke="#7AC241" stroke-width="2"/>
<path d="M179.322 195.055H198.284" stroke="#7AC241" stroke-width="2"/>
<path d="M179.322 186.207H198.284" stroke="#7AC241" stroke-width="2"/>
<path d="M173 177.357H198.283" stroke="#7AC241" stroke-width="2"/>
<path d="M179.322 168.508H198.284" stroke="#7AC241" stroke-width="2"/>
<path d="M179.322 159.659H198.284" stroke="#7AC241" stroke-width="2"/>
<path d="M179.322 150.81H198.284" stroke="#333333" stroke-width="2"/>
<path d="M179.322 141.961H198.284" stroke="#333333" stroke-width="2"/>
<path d="M173 133.111H198.283" stroke="#333333" stroke-width="2"/>
<path d="M179.322 124.889H198.284" stroke="#333333" stroke-width="2"/>
<path d="M179.322 116.039H198.284" stroke="#333333" stroke-width="2"/>
<path d="M179.322 107.19H198.284" stroke="#333333" stroke-width="2"/>
<path d="M179.322 98.3409H198.284" stroke="#333333" stroke-width="2"/>
<path d="M173 89.4916H198.283" stroke="#333333" stroke-width="2"/>
<path d="M179.322 80.6428H198.284" stroke="#333333" stroke-width="2"/>
<path d="M179.322 71.7929H198.284" stroke="#333333" stroke-width="2"/>
<path d="M179.322 62.944H198.284" stroke="#333333" stroke-width="2"/>
<path d="M179.322 54.0952H198.284" stroke="#333333" stroke-width="2"/>
<path d="M173 45.2458H198.283" stroke="#333333" stroke-width="2"/>
<path d="M179.322 36.3969H198.284" stroke="#333333" stroke-width="2"/>
<path d="M179.322 27.5475H198.284" stroke="#333333" stroke-width="2"/>
<path d="M179.322 18.6982H198.284" stroke="#333333" stroke-width="2"/>
<path d="M179.322 9.8493L198.284 9.8493" stroke="#333333" stroke-width="2"/>
<path d="M173 1L198.283 1" stroke="#333333" stroke-width="2"/>
<path d="M46.7839 221.314L0 264H206L206 189.075L162.234 162.453L146.388 181.1L104.886 193.232L79.2308 213.227L46.7839 221.314Z" fill="url(#paint0_linear_388_405)"/>
<defs>
<linearGradient id="paint0_linear_388_405" x1="103" y1="162.453" x2="103" y2="264" gradientUnits="userSpaceOnUse">
<stop offset="0.390625" stop-color="#7AC241" stop-opacity="0.7"/>
<stop offset="1" stop-color="#7AC241" stop-opacity="0"/>
</linearGradient>
</defs>
</svg>
