<svg width="24" height="24" viewBox="0 0 24 24" fill="none" xmlns="http://www.w3.org/2000/svg">
<path fill-rule="evenodd" clip-rule="evenodd" d="M23.1429 1.71429H20.5714V0H18.8571V1.71429H5.14286V0H3.42857V1.71429H0.857143L0 2.57143V23.1429L0.857143 24H23.1429L24 23.1429V2.57143L23.1429 1.71429ZM22.2857 22.2857H1.71429V6.85714H22.2857V22.2857ZM22.2857 5.14286H1.71429V3.42857H22.2857V5.14286ZM5.14286 12H3.42857V13.7143H5.14286V12ZM3.42857 15.4286H5.14286V17.1429H3.42857V15.4286ZM5.14286 18.8571H3.42857V20.5714H5.14286V18.8571ZM8.57143 12H10.2857V13.7143H8.57143V12ZM10.2857 15.4286H8.57143V17.1429H10.2857V15.4286ZM8.57143 18.8571H10.2857V20.5714H8.57143V18.8571ZM10.2857 8.57143H8.57143V10.2857H10.2857V8.57143ZM13.7143 12H15.4286V13.7143H13.7143V12ZM15.4286 15.4286H13.7143V17.1429H15.4286V15.4286ZM13.7143 18.8571H15.4286V20.5714H13.7143V18.8571ZM15.4286 8.57143H13.7143V10.2857H15.4286V8.57143ZM18.8571 12H20.5714V13.7143H18.8571V12ZM20.5714 15.4286H18.8571V17.1429H20.5714V15.4286ZM18.8571 8.57143H20.5714V10.2857H18.8571V8.57143Z" fill="#333333"/>
</svg>
