<svg width="37" height="63" viewBox="0 0 37 63" fill="none" xmlns="http://www.w3.org/2000/svg">
<path d="M21.1429 -1.38628e-06L15.8571 -1.84837e-06L15.8571 47.25L10.5714 47.25L10.5714 55.125L15.8571 55.125L15.8571 63L21.1429 63L21.1429 55.125L26.4286 55.125L26.4286 47.25L21.1429 47.25L21.1429 -1.38628e-06ZM31.7143 39.375L31.7143 47.25L26.4286 47.25L26.4286 39.375L31.7143 39.375ZM31.7143 39.375L31.7143 31.5L37 31.5L37 39.375L31.7143 39.375ZM5.28572 39.375L5.28572 47.25L10.5714 47.25L10.5714 39.375L5.28572 39.375ZM5.28572 39.375L5.28572 31.5L2.75382e-06 31.5L2.06536e-06 39.375L5.28572 39.375Z" fill="#7AC241"/>
</svg>
