<svg width="183" height="40" viewBox="0 0 183 40" fill="none" xmlns="http://www.w3.org/2000/svg">
<path d="M53 24.1655L61.3943 21.5079L74.809 25.7508L82.0652 16.7771L96.1729 27.4333L110.869 16.3652L127.204 9.84589L143.186 17.2007L158.09 2L182 24.1655" stroke="#ED1C24" stroke-width="2" stroke-miterlimit="10"/>
<path d="M182 5.63336L178.2 10.8288L161.385 13.5182L143.186 30.347L135.976 24.2925L123.649 34.1372L99.373 14.1161L84.916 31.5252L67.1653 38.3334L53 35.2911" stroke="#368BFF" stroke-width="2" stroke-miterlimit="10"/>
<path d="M31.1058 9.02081L20.2562 19.8704C20.3742 17.7958 19.1136 15.8433 17.3501 15.8433H7.59008C5.42634 15.8433 4.01889 18.7819 4.98691 21.28L8.85689 31.2703L6.23466 33.8925H0V38H7.93578L32.8069 13.1283H38.58V9.02081H31.1058Z" fill="#ED1C24"/>
<path d="M16.8009 10.0358C16.9984 7.64965 15.2242 5.55516 12.8381 5.35763C10.452 5.16011 8.35749 6.93434 8.15996 9.32047C7.96243 11.7066 9.73664 13.8011 12.1228 13.9986C14.5089 14.1961 16.6034 12.4219 16.8009 10.0358Z" fill="#ED1C24"/>
<path d="M27.412 27.3034H31.3253L23.8985 34.7302L26.8031 37.6347L34.2299 30.2079V34.1212H38.3373V23.1959H27.412V27.3034Z" fill="#368BFF"/>
</svg>
