<svg width="116" height="116" viewBox="0 0 116 116" fill="none" xmlns="http://www.w3.org/2000/svg">
<mask id="path-1-inside-1_381_119" fill="white">
<path fill-rule="evenodd" clip-rule="evenodd" d="M57.5502 -2.029e-05C25.7661 -2.30686e-05 7.80985e-06 25.7661 5.0312e-06 57.5502C2.25254e-06 89.3343 25.7661 115.1 57.5502 115.1C89.3343 115.1 115.1 89.3343 115.1 57.5502C115.1 25.7661 89.3343 -1.75113e-05 57.5502 -2.029e-05ZM57.5503 17.6708C35.5256 17.6708 17.6711 35.5253 17.6711 57.55C17.6711 79.5746 35.5256 97.4291 57.5503 97.4292C79.575 97.4292 97.4295 79.5746 97.4295 57.55C97.4295 35.5253 79.575 17.6708 57.5503 17.6708Z"/>
</mask>
<path fill-rule="evenodd" clip-rule="evenodd" d="M57.5502 -2.029e-05C25.7661 -2.30686e-05 7.80985e-06 25.7661 5.0312e-06 57.5502C2.25254e-06 89.3343 25.7661 115.1 57.5502 115.1C89.3343 115.1 115.1 89.3343 115.1 57.5502C115.1 25.7661 89.3343 -1.75113e-05 57.5502 -2.029e-05ZM57.5503 17.6708C35.5256 17.6708 17.6711 35.5253 17.6711 57.55C17.6711 79.5746 35.5256 97.4291 57.5503 97.4292C79.575 97.4292 97.4295 79.5746 97.4295 57.55C97.4295 35.5253 79.575 17.6708 57.5503 17.6708Z" fill="url(#paint0_radial_381_119)"/>
<path d="M1.00001 57.5502C1.00001 26.3184 26.3184 0.999977 57.5502 0.99998L57.5502 -1.00002C25.2138 -1.00002 -0.999992 25.2138 -0.999995 57.5502L1.00001 57.5502ZM57.5502 114.1C26.3184 114.1 1 88.782 1.00001 57.5502L-0.999995 57.5502C-0.999998 89.8866 25.2138 116.1 57.5502 116.1L57.5502 114.1ZM114.1 57.5502C114.1 88.782 88.782 114.1 57.5502 114.1L57.5502 116.1C89.8866 116.1 116.1 89.8866 116.1 57.5502L114.1 57.5502ZM57.5502 0.99998C88.782 0.999982 114.1 26.3184 114.1 57.5502L116.1 57.5502C116.1 25.2138 89.8866 -1.00002 57.5502 -1.00002L57.5502 0.99998ZM18.6711 57.55C18.6711 36.0776 36.0779 18.6708 57.5503 18.6708L57.5503 16.6708C34.9734 16.6708 16.6711 34.973 16.6711 57.55L18.6711 57.55ZM57.5503 96.4292C36.0779 96.4291 18.6711 79.0223 18.6711 57.55L16.6711 57.55C16.6711 80.1269 34.9734 98.4291 57.5503 98.4292L57.5503 96.4292ZM96.4295 57.55C96.4295 79.0223 79.0227 96.4292 57.5503 96.4292L57.5503 98.4292C80.1273 98.4292 98.4295 80.1269 98.4295 57.55L96.4295 57.55ZM57.5503 18.6708C79.0227 18.6708 96.4295 36.0776 96.4295 57.55L98.4295 57.55C98.4295 34.973 80.1273 16.6708 57.5503 16.6708L57.5503 18.6708Z" fill="#FF3434" mask="url(#path-1-inside-1_381_119)"/>
<path d="M87.1694 87.5933C87.0351 87.5933 86.9018 87.5424 86.7999 87.4402L83.1157 83.756C82.9112 83.552 82.9112 83.2205 83.1157 83.0164C83.3193 82.8119 83.6508 82.8119 83.8544 83.0164L87.5386 86.7006C87.7431 86.9046 87.7431 87.2362 87.5386 87.4402C87.4367 87.5424 87.3034 87.5933 87.1694 87.5933Z" fill="#ED1C24"/>
<path d="M99.3677 61.8423C99.35 61.8423 99.333 61.8416 99.3151 61.8399L96.5281 61.5619C96.2403 61.5333 96.0309 61.2769 96.0592 60.9896C96.0883 60.7015 96.3471 60.4928 96.6316 60.5208L99.4186 60.7988C99.7064 60.8274 99.9158 61.0838 99.8875 61.3711C99.86 61.641 99.6329 61.8423 99.3677 61.8423Z" fill="#ED1C24"/>
<path d="M98.7414 66.0009C98.7067 66.0009 98.6718 65.9977 98.6371 65.9905L95.8915 65.4377C95.6086 65.3807 95.425 65.105 95.4825 64.822C95.54 64.538 95.8212 64.3542 96.0983 64.4126L98.844 64.9654C99.1269 65.0224 99.3105 65.2981 99.253 65.5807C99.203 65.8297 98.9847 66.0009 98.7414 66.0009Z" fill="#ED1C24"/>
<path d="M97.7106 70.0773C97.6597 70.0773 97.608 70.0701 97.5571 70.0543L94.8792 69.2323C94.6034 69.1474 94.4483 68.8549 94.5332 68.5788C94.6172 68.3028 94.9115 68.1472 95.1863 68.2323L97.8642 69.0543C98.1399 69.1393 98.2951 69.4317 98.2102 69.7079C98.1415 69.9326 97.9344 70.0773 97.7106 70.0773Z" fill="#ED1C24"/>
<path d="M96.2773 74.0299C96.2094 74.0299 96.1407 74.0169 96.0751 73.9892L93.4919 72.9052C93.2252 72.7938 93.0998 72.4869 93.2113 72.2205C93.3227 71.9541 93.6331 71.8294 93.896 71.9409L96.4792 73.0248C96.7459 73.1363 96.8713 73.4432 96.7598 73.7096C96.6758 73.9096 96.4818 74.0299 96.2773 74.0299Z" fill="#ED1C24"/>
<path d="M94.459 77.8222C94.375 77.8222 94.29 77.8019 94.2107 77.7591L91.748 76.4246C91.4942 76.2868 91.3997 75.9695 91.537 75.7157C91.6745 75.4611 91.9904 75.3669 92.2459 75.5046L94.7086 76.8392C94.9624 76.9769 95.0569 77.2943 94.9196 77.5481C94.8249 77.7233 94.6449 77.8222 94.459 77.8222Z" fill="#ED1C24"/>
<path d="M92.2746 81.4148C92.1737 81.4148 92.0717 81.3857 91.9819 81.3248L89.663 79.7527C89.4238 79.5905 89.3615 79.2652 89.5232 79.0265C89.6865 78.7876 90.0113 78.7243 90.2498 78.8872L92.5687 80.4593C92.8079 80.6214 92.8702 80.9467 92.7085 81.1854C92.6066 81.3343 92.4426 81.4148 92.2746 81.4148Z" fill="#ED1C24"/>
<path d="M89.7448 84.7739C89.626 84.7739 89.508 84.7339 89.4103 84.6527L87.2596 82.8584C87.0374 82.6732 87.0074 82.3435 87.1926 82.1216C87.3778 81.8989 87.7074 81.8715 87.9289 82.0548L90.0796 83.8491C90.3018 84.0343 90.3318 84.364 90.1467 84.5859C90.0431 84.7102 89.8944 84.7739 89.7448 84.7739Z" fill="#ED1C24"/>
<path d="M83.7531 90.6585C83.6003 90.6585 83.4484 90.5918 83.3457 90.4629L81.591 88.2789C81.41 88.0539 81.4456 87.7249 81.6711 87.5437C81.8942 87.3631 82.2255 87.3978 82.4058 87.6242L84.1605 89.8082C84.3415 90.0334 84.3059 90.3621 84.0805 90.5434C83.9844 90.6209 83.8688 90.6585 83.7531 90.6585Z" fill="#ED1C24"/>
<path d="M80.35 93.1269C80.1787 93.1269 80.0112 93.0432 79.9112 92.8896L78.3812 90.5428C78.2237 90.3008 78.2914 89.9765 78.5341 89.8189C78.7774 89.6621 79.0999 89.7305 79.2574 89.9713L80.7874 92.3182C80.9449 92.5602 80.8772 92.8845 80.6345 93.042C80.5466 93.0995 80.4479 93.1269 80.35 93.1269Z" fill="#ED1C24"/>
<path d="M76.7178 95.2457C76.5286 95.2457 76.346 95.1431 76.2529 94.9637L74.9628 92.4766C74.8295 92.22 74.9298 91.9043 75.1859 91.7714C75.4437 91.6397 75.7583 91.7391 75.8907 91.995L77.1808 94.4821C77.3141 94.7388 77.2138 95.0545 76.9577 95.1873C76.8811 95.2267 76.7985 95.2457 76.7178 95.2457Z" fill="#ED1C24"/>
<path d="M72.8907 96.9938C72.6829 96.9938 72.4865 96.8693 72.4049 96.6643L71.3686 94.0618C71.2618 93.7935 71.3928 93.4892 71.6613 93.3824C71.9263 93.2761 72.2336 93.4061 72.3402 93.6746L73.3765 96.2772C73.4833 96.5454 73.3523 96.8498 73.0838 96.9565C73.021 96.9821 72.9553 96.9938 72.8907 96.9938Z" fill="#ED1C24"/>
<path d="M68.914 98.3533C68.6869 98.3533 68.4775 98.2042 68.4112 97.9745L67.6376 95.2822C67.5585 95.0046 67.7184 94.7152 67.9957 94.6351C68.2737 94.5544 68.5622 94.7156 68.6432 94.9937L69.4168 97.686C69.4959 97.9636 69.3361 98.253 69.0587 98.3331C69.0103 98.3468 68.9617 98.3533 68.914 98.3533Z" fill="#ED1C24"/>
<path d="M64.8166 99.3123C64.5693 99.3123 64.3494 99.1357 64.3034 98.883L63.8006 96.1272C63.748 95.8431 63.9365 95.5706 64.2208 95.519C64.4988 95.4692 64.7768 95.6549 64.8285 95.9396L65.3313 98.6955C65.3838 98.9796 65.1954 99.252 64.9111 99.3037C64.8797 99.3095 64.8483 99.3123 64.8166 99.3123Z" fill="#ED1C24"/>
<path d="M60.649 99.8606C60.3798 99.8606 60.1511 99.6533 60.1285 99.3802L59.9021 96.588C59.8786 96.3 60.0936 96.0478 60.3814 96.0243C60.6464 95.9996 60.9205 96.215 60.9447 96.5031L61.1711 99.2952C61.1946 99.5835 60.9796 99.8355 60.6918 99.859C60.678 99.8601 60.6634 99.8606 60.649 99.8606Z" fill="#ED1C24"/>
<path d="M27.2706 87.5939C27.1364 87.5939 27.003 87.543 26.9011 87.4408C26.6966 87.2368 26.6966 86.9053 26.9011 86.7012L30.5853 83.017C30.7889 82.8125 31.1204 82.8125 31.324 83.017C31.5285 83.2211 31.5285 83.5526 31.324 83.7567L27.6398 87.4408C27.5382 87.543 27.4046 87.5939 27.2706 87.5939Z" fill="#ED1C24"/>
<path d="M83.4887 31.3761C83.3544 31.3761 83.2211 31.3251 83.1192 31.223C82.9147 31.019 82.9147 30.6874 83.1192 30.4834L86.8034 26.799C87.007 26.5944 87.3385 26.5944 87.5421 26.799C87.7466 27.003 87.7466 27.3345 87.5421 27.5386L83.8579 31.223C83.7562 31.3254 83.6227 31.3761 83.4887 31.3761Z" fill="#ED1C24"/>
<path d="M30.9539 31.3761C30.8197 31.3761 30.6864 31.3251 30.5845 31.223L26.9003 27.5386C26.6958 27.3345 26.6958 27.003 26.9003 26.799C27.1039 26.5944 27.4354 26.5944 27.639 26.799L31.3232 30.4834C31.5277 30.6874 31.5277 31.019 31.3232 31.223C31.2215 31.3254 31.0882 31.3761 30.9539 31.3761Z" fill="#ED1C24"/>
<path d="M99.5779 57.6431H96.7764C96.4879 57.6431 96.2534 57.409 96.2534 57.1201C96.2534 56.8311 96.4877 56.597 96.7764 56.597H99.5779C99.8664 56.597 100.101 56.8311 100.101 57.1201C100.101 57.409 99.8664 57.6431 99.5779 57.6431Z" fill="#ED1C24"/>
<path d="M17.665 57.6431H14.8636C14.5751 57.6431 14.3405 57.409 14.3405 57.1201C14.3405 56.8311 14.5748 56.597 14.8636 56.597H17.665C17.9535 56.597 18.1881 56.8311 18.1881 57.1201C18.1881 57.409 17.9538 57.6431 17.665 57.6431Z" fill="#ED1C24"/>
<path d="M57.221 18.0876C56.9325 18.0876 56.6979 17.8535 56.6979 17.5645V14.7631C56.6979 14.4741 56.9322 14.2401 57.221 14.2401C57.5097 14.2401 57.744 14.4741 57.744 14.7631V17.5645C57.7437 17.8535 57.5095 18.0876 57.221 18.0876Z" fill="#ED1C24"/>
<path d="M57.221 100C56.9325 100 56.6979 99.766 56.6979 99.477V96.6755C56.6979 96.3866 56.9322 96.1525 57.221 96.1525C57.5097 96.1525 57.744 96.3866 57.744 96.6755V99.477C57.7437 99.766 57.5095 100 57.221 100Z" fill="#ED1C24"/>
<path d="M17.8613 53.7208C17.8436 53.7208 17.8266 53.7201 17.8087 53.7185L15.021 53.4409C14.7332 53.4123 14.5238 53.1559 14.5522 52.8686C14.5806 52.5806 14.8432 52.373 15.1245 52.3998L17.9123 52.6773C18.2001 52.706 18.4095 52.9624 18.3811 53.2497C18.3543 53.5196 18.1265 53.7208 17.8613 53.7208Z" fill="#ED1C24"/>
<path d="M61.1433 18.2824C61.1256 18.2824 61.1086 18.2817 61.0907 18.2801C60.8029 18.2515 60.5935 17.9951 60.6219 17.7077L60.9 14.92C60.929 14.6319 61.1861 14.426 61.4723 14.4512C61.7601 14.4798 61.9695 14.7362 61.9411 15.0235L61.6631 17.8113C61.6356 18.0811 61.4085 18.2824 61.1433 18.2824Z" fill="#ED1C24"/>
<path d="M53.0207 99.7912C53.003 99.7912 52.986 99.7905 52.9681 99.7888C52.6803 99.7602 52.4709 99.5038 52.4993 99.2165L52.7766 96.4287C52.805 96.1407 53.0644 95.9329 53.3489 95.9599C53.6367 95.9886 53.8461 96.2449 53.8177 96.5323L53.5404 99.32C53.5137 99.5899 53.2857 99.7912 53.0207 99.7912Z" fill="#ED1C24"/>
<path d="M18.4446 49.8381C18.41 49.8381 18.3751 49.8349 18.3404 49.8281L15.5938 49.2755C15.3109 49.2185 15.1274 48.9426 15.1848 48.6597C15.2423 48.3761 15.5219 48.1958 15.8007 48.25L18.5472 48.8025C18.8302 48.8595 19.0137 49.1355 18.9563 49.4184C18.9062 49.6666 18.688 49.8381 18.4446 49.8381Z" fill="#ED1C24"/>
<path d="M65.0262 18.8653C64.9915 18.8653 64.9566 18.862 64.922 18.8548C64.6391 18.7978 64.4555 18.5221 64.5129 18.2394L65.0657 15.4933C65.1232 15.2093 65.4045 15.0268 65.6816 15.0838C65.9645 15.1409 66.1481 15.4166 66.0906 15.6992L65.5378 18.4453C65.4878 18.6938 65.2696 18.8653 65.0262 18.8653Z" fill="#ED1C24"/>
<path d="M48.8625 99.1662C48.8279 99.1662 48.793 99.163 48.7583 99.1558C48.4754 99.0988 48.2918 98.8231 48.3493 98.5404L48.9021 95.7938C48.9595 95.5097 49.2383 95.3266 49.5179 95.3843C49.8008 95.4413 49.9844 95.717 49.9269 95.9997L49.3741 98.7463C49.3241 98.9948 49.1059 99.1662 48.8625 99.1662Z" fill="#ED1C24"/>
<path d="M19.4078 46.0317C19.3568 46.0317 19.3052 46.0245 19.2542 46.0087L16.5763 45.1862C16.3006 45.1013 16.1454 44.8089 16.2303 44.5327C16.3143 44.2567 16.607 44.1006 16.8834 44.1863L19.5614 45.0087C19.8378 45.0936 19.9922 45.3861 19.9073 45.6623C19.8385 45.8872 19.6316 46.0317 19.4078 46.0317Z" fill="#ED1C24"/>
<path d="M68.8325 19.8308C68.7815 19.8308 68.7299 19.8236 68.6789 19.8078C68.4032 19.7229 68.248 19.4304 68.333 19.1543L69.155 16.4763C69.2399 16.2006 69.5333 16.0436 69.808 16.1299C70.0837 16.2148 70.2389 16.5073 70.154 16.7835L69.332 19.4614C69.2631 19.6861 69.0563 19.8308 68.8325 19.8308Z" fill="#ED1C24"/>
<path d="M44.7861 98.1327C44.7351 98.1327 44.6835 98.1255 44.6325 98.1096C44.3561 98.0247 44.2016 97.7323 44.2866 97.4561L45.1095 94.7782C45.1935 94.5018 45.4869 94.3466 45.7626 94.4317C46.039 94.5166 46.1934 94.8091 46.1085 95.0853L45.2856 97.7632C45.2167 97.9884 45.0099 98.1327 44.7861 98.1327Z" fill="#ED1C24"/>
<path d="M20.7455 42.3393C20.6776 42.3393 20.6096 42.3263 20.5433 42.2986L17.9601 41.2151C17.6934 41.1037 17.568 40.7972 17.6797 40.5308C17.7912 40.2638 18.0976 40.1388 18.3644 40.2507L20.9477 41.3342C21.2143 41.4457 21.3397 41.7521 21.228 42.0185C21.144 42.2188 20.95 42.3393 20.7455 42.3393Z" fill="#ED1C24"/>
<path d="M72.5237 21.1679C72.4558 21.1679 72.3872 21.1549 72.3215 21.1272C72.0549 21.0158 71.9295 20.7089 72.0412 20.4425L73.1251 17.8593C73.2366 17.5926 73.5463 17.4672 73.8099 17.5796C74.0765 17.691 74.2019 17.9979 74.0902 18.2643L73.0063 20.8476C72.922 21.0476 72.7282 21.1679 72.5237 21.1679Z" fill="#ED1C24"/>
<path d="M40.8319 96.7005C40.7639 96.7005 40.6953 96.6874 40.6297 96.6598C40.3631 96.5483 40.2377 96.2414 40.3493 95.975L41.4333 93.3918C41.5457 93.1254 41.8544 92.9991 42.118 93.1121C42.3847 93.2236 42.5101 93.5305 42.3984 93.7969L41.3144 96.3801C41.2304 96.5802 41.0364 96.7005 40.8319 96.7005Z" fill="#ED1C24"/>
<path d="M22.4413 38.7985C22.3573 38.7985 22.2724 38.7783 22.1931 38.7355L19.7304 37.4009C19.4765 37.2632 19.3821 36.9458 19.5193 36.692C19.6559 36.4375 19.9728 36.3428 20.2283 36.481L22.691 37.8155C22.9448 37.9533 23.0393 38.2706 22.902 38.5244C22.8073 38.6996 22.6272 38.7985 22.4413 38.7985Z" fill="#ED1C24"/>
<path d="M76.0634 22.8645C75.9794 22.8645 75.8945 22.8443 75.8152 22.8015C75.5613 22.6637 75.4669 22.3464 75.6041 22.0923L76.9394 19.6291C77.076 19.3753 77.3935 19.2804 77.6483 19.4186C77.9021 19.5563 77.9966 19.8737 77.8593 20.1277L76.5241 22.5909C76.4296 22.7654 76.2493 22.8645 76.0634 22.8645Z" fill="#ED1C24"/>
<path d="M37.041 94.884C36.957 94.884 36.8721 94.8637 36.7928 94.8209C36.539 94.6832 36.4445 94.3658 36.5818 94.112L37.9163 91.6488C38.0529 91.3943 38.3698 91.3001 38.6252 91.4378C38.8791 91.5755 38.9735 91.8929 38.8362 92.1467L37.5017 94.6099C37.4072 94.7849 37.2269 94.884 37.041 94.884Z" fill="#ED1C24"/>
<path d="M24.4806 35.4425C24.3796 35.4425 24.2777 35.4134 24.1879 35.3524L21.869 33.7799C21.6298 33.6177 21.5674 33.2925 21.7298 33.0538C21.8922 32.8148 22.2173 32.7522 22.4557 32.9144L24.7747 34.4869C25.0138 34.6491 25.0762 34.9744 24.9138 35.2131C24.8128 35.3622 24.6488 35.4425 24.4806 35.4425Z" fill="#ED1C24"/>
<path d="M79.4201 24.9043C79.3191 24.9043 79.2172 24.8752 79.1274 24.8142C78.8882 24.6521 78.8258 24.3268 78.9882 24.0881L80.5603 21.7696C80.722 21.5307 81.0468 21.4674 81.2862 21.6303C81.5254 21.7924 81.5878 22.1177 81.4254 22.3564L79.8533 24.6749C79.7523 24.8238 79.5883 24.9043 79.4201 24.9043Z" fill="#ED1C24"/>
<path d="M33.4461 92.6996C33.3451 92.6996 33.2432 92.6705 33.1534 92.6095C32.9142 92.4474 32.8519 92.1221 33.0143 91.8834L34.5871 89.5649C34.7488 89.326 35.0736 89.2627 35.313 89.4256C35.5521 89.5877 35.6145 89.913 35.4521 90.1517L33.8791 92.4702C33.7783 92.6193 33.6143 92.6996 33.4461 92.6996Z" fill="#ED1C24"/>
<path d="M26.8445 32.3067C26.7265 32.3067 26.6077 32.2671 26.5099 32.1854L24.3583 30.3912C24.1361 30.206 24.1061 29.8763 24.2913 29.6543C24.4765 29.4321 24.8052 29.403 25.0277 29.5875L27.1793 31.3818C27.4015 31.567 27.4315 31.8967 27.2463 32.1187C27.1428 32.2429 26.9941 32.3067 26.8445 32.3067Z" fill="#ED1C24"/>
<path d="M82.5568 27.2673C82.4388 27.2673 82.3199 27.2272 82.2222 27.146C82 26.9608 81.97 26.6312 82.1552 26.4092L83.9495 24.258C84.1347 24.0361 84.4644 24.007 84.6859 24.1913C84.9081 24.3765 84.9381 24.7061 84.7529 24.9281L82.9586 27.0793C82.855 27.2035 82.7064 27.2673 82.5568 27.2673Z" fill="#ED1C24"/>
<path d="M30.0902 90.1704C29.9722 90.1704 29.8533 90.1308 29.7556 90.0492C29.5334 89.864 29.5034 89.5343 29.6886 89.3123L31.4829 87.1607C31.6671 86.9385 31.9978 86.9089 32.2192 87.0939C32.4414 87.2791 32.4715 87.6088 32.2863 87.8307L30.492 89.9824C30.3884 90.1066 30.2398 90.1704 30.0902 90.1704Z" fill="#ED1C24"/>
<path d="M32.4412 26.8102C32.2883 26.8102 32.1373 26.7434 32.0338 26.615L30.279 24.4315C30.098 24.206 30.1336 23.8771 30.3591 23.6961C30.5822 23.5157 30.9128 23.5506 31.0938 23.7761L32.8486 25.9596C33.0296 26.1848 32.994 26.514 32.7685 26.6951C32.6722 26.7725 32.5566 26.8102 32.4412 26.8102Z" fill="#ED1C24"/>
<path d="M88.0523 32.8637C87.8994 32.8637 87.7484 32.7969 87.6449 32.6685C87.4638 32.4433 87.4994 32.114 87.7249 31.9333L89.9079 30.1781C90.1311 29.9971 90.4608 30.0317 90.6427 30.2576C90.8237 30.4829 90.7881 30.8121 90.5627 30.9928L88.3796 32.748C88.2833 32.8262 88.1677 32.8637 88.0523 32.8637Z" fill="#ED1C24"/>
<path d="M24.2046 84.1767C24.0518 84.1767 23.8998 84.1099 23.7972 83.981C23.6162 83.756 23.6518 83.427 23.8773 83.2458L26.0612 81.4911C26.2844 81.3107 26.615 81.3447 26.796 81.5716C26.977 81.7968 26.9414 82.1255 26.716 82.3068L24.532 84.0615C24.4356 84.1392 24.32 84.1767 24.2046 84.1767Z" fill="#ED1C24"/>
<path d="M35.6207 24.5059C35.4494 24.5059 35.2819 24.4221 35.1819 24.2683L33.6526 21.9215C33.4951 21.6797 33.5628 21.3556 33.8055 21.1981C34.0488 21.0413 34.3713 21.1093 34.5288 21.351L36.0581 23.6978C36.2156 23.9396 36.1479 24.2637 35.9052 24.4212C35.8173 24.4784 35.7186 24.5059 35.6207 24.5059Z" fill="#ED1C24"/>
<path d="M90.3569 36.0431C90.1855 36.0431 90.0182 35.9593 89.9182 35.8055C89.7606 35.5638 89.8283 35.2397 90.071 35.0822L92.4183 33.5524C92.6617 33.3956 92.9842 33.4636 93.1417 33.7053C93.2992 33.947 93.2315 34.2711 92.9888 34.4286L90.6415 35.9584C90.5533 36.0156 90.4547 36.0431 90.3569 36.0431Z" fill="#ED1C24"/>
<path d="M21.7367 80.7727C21.5652 80.7727 21.3979 80.6889 21.2979 80.5353C21.1404 80.2934 21.2081 79.9691 21.4507 79.8115L23.7971 78.2818C24.0396 78.1245 24.3637 78.1929 24.5205 78.4342C24.678 78.6762 24.6103 79.0005 24.3676 79.158L22.0212 80.6877C21.9331 80.7452 21.8344 80.7727 21.7367 80.7727Z" fill="#ED1C24"/>
<path d="M39.0131 22.5278C38.824 22.5278 38.6413 22.4252 38.5483 22.2458L37.2591 19.7592C37.1258 19.5025 37.2261 19.1868 37.4822 19.054C37.74 18.923 38.0546 19.0212 38.1869 19.2775L39.4761 21.7642C39.6094 22.0209 39.5092 22.3366 39.253 22.4694C39.1764 22.5087 39.0939 22.5278 39.0131 22.5278Z" fill="#ED1C24"/>
<path d="M92.3361 39.4352C92.147 39.4352 91.9643 39.3326 91.8713 39.1528C91.738 38.8966 91.8382 38.5809 92.0944 38.448L94.5815 37.1589C94.8377 37.0274 95.1539 37.1265 95.2863 37.3827C95.4196 37.6389 95.3193 37.9546 95.0631 38.0874L92.576 39.3766C92.4995 39.4161 92.4171 39.4352 92.3361 39.4352Z" fill="#ED1C24"/>
<path d="M19.6179 77.1408C19.4287 77.1408 19.2461 77.0382 19.153 76.8589C19.0197 76.6022 19.12 76.2865 19.3762 76.1537L21.8633 74.864C22.1204 74.7326 22.4356 74.8317 22.568 75.0876C22.7013 75.3442 22.6011 75.6599 22.3449 75.7928L19.8578 77.0824C19.7812 77.1218 19.6989 77.1408 19.6179 77.1408Z" fill="#ED1C24"/>
<path d="M42.584 20.8951C42.3762 20.8951 42.1798 20.7706 42.0982 20.5656L41.0612 17.9631C40.9544 17.6948 41.0854 17.3905 41.3539 17.2837C41.6205 17.1769 41.9262 17.3075 42.0328 17.5759L43.0698 20.1785C43.1766 20.4467 43.0456 20.7511 42.7771 20.8579C42.7143 20.8832 42.6487 20.8951 42.584 20.8951Z" fill="#ED1C24"/>
<path d="M93.9686 43.0074C93.7609 43.0074 93.5645 42.8829 93.4828 42.6779C93.376 42.4097 93.507 42.1054 93.7755 41.9986L96.3781 40.9621C96.644 40.8553 96.9504 40.9858 97.057 41.2543C97.1637 41.5225 97.0328 41.8269 96.7643 41.9337L94.1617 42.9702C94.0987 42.9955 94.0333 43.0074 93.9686 43.0074Z" fill="#ED1C24"/>
<path d="M17.8696 73.3156C17.6618 73.3156 17.4654 73.1912 17.3838 72.9862C17.277 72.7179 17.408 72.4136 17.6764 72.3068L20.279 71.2703C20.544 71.1628 20.8513 71.2938 20.9579 71.5625C21.0647 71.8308 20.9337 72.1351 20.6652 72.2419L18.0627 73.2784C17.9998 73.304 17.9342 73.3156 17.8696 73.3156Z" fill="#ED1C24"/>
<path d="M46.3012 19.6251C46.0732 19.6251 45.8647 19.476 45.7984 19.2463L45.0248 16.5535C44.9457 16.2759 45.1055 15.9865 45.3829 15.9065C45.6648 15.8264 45.9503 15.9872 46.0303 16.265L46.8039 18.9578C46.883 19.2354 46.7232 19.5248 46.4459 19.6049C46.3973 19.6186 46.3489 19.6251 46.3012 19.6251Z" fill="#ED1C24"/>
<path d="M95.2389 46.722C95.0118 46.722 94.8024 46.5728 94.7361 46.3432C94.657 46.0656 94.8168 45.7762 95.0941 45.6962L97.7865 44.9226C98.0638 44.8425 98.353 45.0031 98.434 45.2811C98.5131 45.5586 98.3533 45.8481 98.0759 45.9281L95.3836 46.7017C95.3349 46.7154 95.2866 46.722 95.2389 46.722Z" fill="#ED1C24"/>
<path d="M16.5102 69.3374C16.2822 69.3374 16.0738 69.1882 16.0074 68.9586C15.9283 68.681 16.0882 68.3916 16.3655 68.3116L19.0579 67.5384C19.3392 67.4595 19.6253 67.6196 19.7054 67.8969C19.7845 68.1745 19.6246 68.4639 19.3473 68.544L16.6549 69.3171C16.6063 69.3308 16.5579 69.3374 16.5102 69.3374Z" fill="#ED1C24"/>
<path d="M50.1224 18.7292C49.875 18.7292 49.6552 18.5526 49.6091 18.2999L49.1063 15.544C49.0537 15.26 49.2422 14.9875 49.5267 14.9359C49.8048 14.887 50.0828 15.072 50.1345 15.3565L50.6372 18.1124C50.6898 18.3965 50.5014 18.6689 50.2168 18.7206C50.1854 18.7264 50.154 18.7292 50.1224 18.7292Z" fill="#ED1C24"/>
<path d="M96.1341 50.5453C95.8868 50.5453 95.6662 50.3687 95.6209 50.116C95.5683 49.8319 95.7567 49.5595 96.0413 49.5078L98.7967 49.0055C99.0773 48.9573 99.3537 49.1416 99.4044 49.4262C99.457 49.7102 99.2685 49.9827 98.9842 50.0343L96.2288 50.5366C96.1972 50.5425 96.1655 50.5453 96.1341 50.5453Z" fill="#ED1C24"/>
<path d="M15.5497 65.243C15.3024 65.243 15.0819 65.0664 15.0365 64.8138C14.9839 64.5297 15.1724 64.2573 15.4569 64.2056L18.2132 63.7028C18.4936 63.6514 18.7702 63.8389 18.821 64.1235C18.8735 64.4076 18.6851 64.68 18.4005 64.7316L15.6442 65.2344C15.6128 65.2402 15.5812 65.243 15.5497 65.243Z" fill="#ED1C24"/>
<path d="M54.0164 18.2171C53.7472 18.2171 53.5185 18.0103 53.496 17.7366L53.2689 14.9445C53.2454 14.6567 53.4597 14.4042 53.7482 14.3807C54.0125 14.3554 54.2872 14.5711 54.3114 14.8596L54.5385 17.6517C54.562 17.9395 54.3477 18.192 54.0592 18.2155C54.0455 18.2166 54.0309 18.2171 54.0164 18.2171Z" fill="#ED1C24"/>
<path d="M96.6457 54.4393C96.3765 54.4393 96.1478 54.2324 96.1252 53.9588C96.1017 53.671 96.316 53.4186 96.6045 53.3951L99.3962 53.168C99.6654 53.1445 99.9362 53.3583 99.9595 53.6468C99.983 53.9346 99.7687 54.1871 99.4802 54.2106L96.6885 54.4377C96.6748 54.4388 96.6601 54.4393 96.6457 54.4393Z" fill="#ED1C24"/>
<path d="M15.001 61.0738C14.7318 61.0738 14.5031 60.8665 14.4805 60.5934C14.457 60.3051 14.672 60.0531 14.9598 60.0296L17.7525 59.803C18.02 59.78 18.2925 59.9938 18.3157 60.2818C18.339 60.5699 18.1242 60.8221 17.8364 60.8456L15.0438 61.0722C15.0303 61.0736 15.0157 61.0738 15.001 61.0738Z" fill="#ED1C24"/>
<defs>
<radialGradient id="paint0_radial_381_119" cx="0" cy="0" r="1" gradientUnits="userSpaceOnUse" gradientTransform="translate(57.5502 57.5502) rotate(-90) scale(57.5502)">
<stop offset="0.744792" stop-color="#FF3434" stop-opacity="0"/>
<stop offset="1" stop-color="#FF3434"/>
</radialGradient>
</defs>
</svg>
