<svg width="116" height="116" viewBox="0 0 116 116" fill="none" xmlns="http://www.w3.org/2000/svg">
<mask id="path-1-inside-1_381_192" fill="white">
<path fill-rule="evenodd" clip-rule="evenodd" d="M57.5502 -2.029e-05C25.7661 -2.30686e-05 -7.44894e-06 25.7661 -1.02276e-05 57.5502C-1.30062e-05 89.3343 25.7661 115.1 57.5502 115.1C89.3343 115.1 115.1 89.3343 115.1 57.5502C115.1 25.7661 89.3343 -1.75113e-05 57.5502 -2.029e-05ZM57.5503 17.6708C35.5256 17.6708 17.6711 35.5253 17.6711 57.55C17.6711 79.5746 35.5256 97.4291 57.5503 97.4292C79.575 97.4292 97.4295 79.5746 97.4295 57.55C97.4295 35.5253 79.575 17.6708 57.5503 17.6708Z"/>
</mask>
<path fill-rule="evenodd" clip-rule="evenodd" d="M57.5502 -2.029e-05C25.7661 -2.30686e-05 -7.44894e-06 25.7661 -1.02276e-05 57.5502C-1.30062e-05 89.3343 25.7661 115.1 57.5502 115.1C89.3343 115.1 115.1 89.3343 115.1 57.5502C115.1 25.7661 89.3343 -1.75113e-05 57.5502 -2.029e-05ZM57.5503 17.6708C35.5256 17.6708 17.6711 35.5253 17.6711 57.55C17.6711 79.5746 35.5256 97.4291 57.5503 97.4292C79.575 97.4292 97.4295 79.5746 97.4295 57.55C97.4295 35.5253 79.575 17.6708 57.5503 17.6708Z" fill="url(#paint0_radial_381_192)"/>
<path d="M0.99999 57.5502C0.999993 26.3184 26.3184 0.999977 57.5502 0.99998L57.5502 -1.00002C25.2138 -1.00002 -1.00001 25.2138 -1.00001 57.5502L0.99999 57.5502ZM57.5502 114.1C26.3184 114.1 0.999987 88.782 0.99999 57.5502L-1.00001 57.5502C-1.00001 89.8866 25.2138 116.1 57.5502 116.1L57.5502 114.1ZM114.1 57.5502C114.1 88.782 88.782 114.1 57.5502 114.1L57.5502 116.1C89.8866 116.1 116.1 89.8866 116.1 57.5502L114.1 57.5502ZM57.5502 0.99998C88.782 0.999982 114.1 26.3184 114.1 57.5502L116.1 57.5502C116.1 25.2138 89.8866 -1.00002 57.5502 -1.00002L57.5502 0.99998ZM18.6711 57.55C18.6711 36.0776 36.0779 18.6708 57.5503 18.6708L57.5503 16.6708C34.9733 16.6708 16.6711 34.973 16.6711 57.55L18.6711 57.55ZM57.5503 96.4292C36.0779 96.4291 18.6711 79.0223 18.6711 57.55L16.6711 57.55C16.6711 80.1269 34.9733 98.4291 57.5503 98.4292L57.5503 96.4292ZM96.4295 57.55C96.4295 79.0223 79.0227 96.4292 57.5503 96.4292L57.5503 98.4292C80.1272 98.4292 98.4295 80.1269 98.4295 57.55L96.4295 57.55ZM57.5503 18.6708C79.0227 18.6708 96.4295 36.0776 96.4295 57.55L98.4295 57.55C98.4295 34.973 80.1273 16.6708 57.5503 16.6708L57.5503 18.6708Z" fill="#368BFF" mask="url(#path-1-inside-1_381_192)"/>
<path d="M87.1694 87.5933C87.0352 87.5933 86.9019 87.5424 86.8 87.4402L83.1158 83.756C82.9113 83.552 82.9113 83.2205 83.1158 83.0164C83.3193 82.8119 83.6509 82.8119 83.8545 83.0164L87.5387 86.7006C87.7432 86.9046 87.7432 87.2362 87.5387 87.4402C87.4367 87.5424 87.3034 87.5933 87.1694 87.5933Z" fill="#368BFF"/>
<path d="M99.3677 61.8423C99.3501 61.8423 99.3331 61.8416 99.3152 61.8399L96.5281 61.5619C96.2403 61.5333 96.0309 61.2769 96.0593 60.9896C96.0884 60.7015 96.3471 60.4928 96.6317 60.5208L99.4187 60.7988C99.7065 60.8274 99.9159 61.0838 99.8875 61.3711C99.8601 61.641 99.633 61.8423 99.3677 61.8423Z" fill="#368BFF"/>
<path d="M98.7414 66.0009C98.7068 66.0009 98.6719 65.9977 98.6372 65.9905L95.8916 65.4377C95.6087 65.3807 95.4251 65.105 95.4826 64.822C95.54 64.538 95.8213 64.3542 96.0984 64.4126L98.844 64.9654C99.127 65.0224 99.3105 65.2981 99.2531 65.5807C99.203 65.8297 98.9848 66.0009 98.7414 66.0009Z" fill="#368BFF"/>
<path d="M97.7107 70.0773C97.6598 70.0773 97.6081 70.0701 97.5571 70.0543L94.8792 69.2323C94.6035 69.1474 94.4483 68.8549 94.5333 68.5788C94.6173 68.3028 94.9116 68.1472 95.1863 68.2323L97.8643 69.0543C98.14 69.1393 98.2952 69.4317 98.2102 69.7079C98.1416 69.9326 97.9345 70.0773 97.7107 70.0773Z" fill="#368BFF"/>
<path d="M96.2773 74.0299C96.2094 74.0299 96.1408 74.0169 96.0752 73.9892L93.4919 72.9052C93.2253 72.7938 93.0999 72.4869 93.2113 72.2205C93.3228 71.9541 93.6332 71.8294 93.8961 71.9409L96.4793 73.0248C96.7459 73.1363 96.8713 73.4432 96.7599 73.7096C96.6759 73.9096 96.4819 74.0299 96.2773 74.0299Z" fill="#368BFF"/>
<path d="M94.459 77.8222C94.375 77.8222 94.2901 77.8019 94.2108 77.7591L91.7481 76.4246C91.4942 76.2868 91.3998 75.9695 91.537 75.7157C91.6745 75.4611 91.9905 75.3669 92.246 75.5046L94.7087 76.8392C94.9625 76.9769 95.057 77.2943 94.9197 77.5481C94.825 77.7233 94.6449 77.8222 94.459 77.8222Z" fill="#368BFF"/>
<path d="M92.2747 81.4148C92.1737 81.4148 92.0718 81.3857 91.982 81.3248L89.6631 79.7527C89.4239 79.5905 89.3615 79.2652 89.5232 79.0265C89.6866 78.7876 90.0114 78.7243 90.2498 78.8872L92.5688 80.4593C92.8079 80.6214 92.8703 80.9467 92.7086 81.1854C92.6067 81.3343 92.4427 81.4148 92.2747 81.4148Z" fill="#368BFF"/>
<path d="M89.7449 84.7739C89.626 84.7739 89.5081 84.7339 89.4103 84.6527L87.2596 82.8584C87.0374 82.6732 87.0074 82.3435 87.1926 82.1216C87.3778 81.8989 87.7075 81.8715 87.929 82.0548L90.0797 83.8491C90.3019 84.0343 90.3319 84.364 90.1467 84.5859C90.0432 84.7102 89.8945 84.7739 89.7449 84.7739Z" fill="#368BFF"/>
<path d="M83.7532 90.6585C83.6004 90.6585 83.4484 90.5918 83.3458 90.4629L81.5911 88.2789C81.4101 88.0539 81.4457 87.7249 81.6711 87.5437C81.8943 87.3631 82.2256 87.3978 82.4059 87.6242L84.1606 89.8082C84.3416 90.0334 84.306 90.3621 84.0806 90.5434C83.9845 90.6209 83.8688 90.6585 83.7532 90.6585Z" fill="#368BFF"/>
<path d="M80.35 93.1269C80.1788 93.1269 80.0113 93.0432 79.9112 92.8896L78.3813 90.5428C78.2237 90.3008 78.2915 89.9765 78.5341 89.8189C78.7775 89.6621 79.1 89.7305 79.2575 89.9713L80.7874 92.3182C80.945 92.5602 80.8772 92.8845 80.6346 93.042C80.5466 93.0995 80.448 93.1269 80.35 93.1269Z" fill="#368BFF"/>
<path d="M76.7178 95.2457C76.5287 95.2457 76.3461 95.1431 76.253 94.9637L74.9629 92.4766C74.8296 92.22 74.9298 91.9043 75.186 91.7714C75.4438 91.6397 75.7583 91.7391 75.8907 91.995L77.1808 94.4821C77.3142 94.7388 77.2139 95.0545 76.9577 95.1873C76.8812 95.2267 76.7986 95.2457 76.7178 95.2457Z" fill="#368BFF"/>
<path d="M72.8907 96.9938C72.683 96.9938 72.4866 96.8693 72.4049 96.6643L71.3687 94.0618C71.2619 93.7935 71.3929 93.4892 71.6613 93.3824C71.9264 93.2761 72.2337 93.4061 72.3403 93.6746L73.3765 96.2772C73.4833 96.5454 73.3523 96.8498 73.0838 96.9565C73.021 96.9821 72.9554 96.9938 72.8907 96.9938Z" fill="#368BFF"/>
<path d="M68.9141 98.3533C68.687 98.3533 68.4776 98.2042 68.4113 97.9745L67.6377 95.2822C67.5586 95.0046 67.7184 94.7152 67.9958 94.6351C68.2738 94.5544 68.5623 94.7156 68.6433 94.9937L69.4169 97.686C69.496 97.9636 69.3361 98.253 69.0588 98.3331C69.0104 98.3468 68.9618 98.3533 68.9141 98.3533Z" fill="#368BFF"/>
<path d="M64.8167 99.3123C64.5694 99.3123 64.3495 99.1357 64.3034 98.883L63.8007 96.1272C63.7481 95.8431 63.9365 95.5706 64.2208 95.519C64.4989 95.4692 64.7769 95.6549 64.8286 95.9396L65.3313 98.6955C65.3839 98.9796 65.1955 99.252 64.9111 99.3037C64.8797 99.3095 64.8483 99.3123 64.8167 99.3123Z" fill="#368BFF"/>
<path d="M60.649 99.8606C60.3798 99.8606 60.1511 99.6533 60.1286 99.3802L59.9022 96.588C59.8787 96.3 60.0937 96.0478 60.3815 96.0243C60.6465 95.9996 60.9205 96.215 60.9447 96.5031L61.1711 99.2952C61.1946 99.5835 60.9796 99.8355 60.6918 99.859C60.6781 99.8601 60.6635 99.8606 60.649 99.8606Z" fill="#368BFF"/>
<path d="M27.2707 87.5939C27.1364 87.5939 27.0031 87.5429 26.9012 87.4408C26.6967 87.2367 26.6967 86.9052 26.9012 86.7012L30.5854 83.017C30.789 82.8125 31.1205 82.8125 31.3241 83.017C31.5286 83.221 31.5286 83.5525 31.3241 83.7566L27.6399 87.4408C27.5382 87.5429 27.4047 87.5939 27.2707 87.5939Z" fill="#368BFF"/>
<path d="M83.4887 31.376C83.3545 31.376 83.2212 31.3251 83.1192 31.2229C82.9147 31.0189 82.9147 30.6874 83.1192 30.4833L86.8034 26.7989C87.007 26.5944 87.3386 26.5944 87.5421 26.7989C87.7466 27.0029 87.7466 27.3345 87.5421 27.5385L83.858 31.2229C83.7563 31.3253 83.6227 31.376 83.4887 31.376Z" fill="#368BFF"/>
<path d="M30.954 31.376C30.8198 31.376 30.6864 31.3251 30.5845 31.2229L26.9003 27.5385C26.6958 27.3345 26.6958 27.0029 26.9003 26.7989C27.1039 26.5944 27.4355 26.5944 27.639 26.7989L31.3232 30.4833C31.5277 30.6874 31.5277 31.0189 31.3232 31.2229C31.2216 31.3253 31.0882 31.376 30.954 31.376Z" fill="#368BFF"/>
<path d="M99.578 57.643H96.7765C96.488 57.643 96.2535 57.409 96.2535 57.12C96.2535 56.831 96.4878 56.597 96.7765 56.597H99.578C99.8665 56.597 100.101 56.831 100.101 57.12C100.101 57.409 99.8665 57.643 99.578 57.643Z" fill="#368BFF"/>
<path d="M17.6651 57.643H14.8636C14.5751 57.643 14.3406 57.409 14.3406 57.12C14.3406 56.831 14.5749 56.597 14.8636 56.597H17.6651C17.9536 56.597 18.1881 56.831 18.1881 57.12C18.1881 57.409 17.9538 57.643 17.6651 57.643Z" fill="#368BFF"/>
<path d="M57.221 18.0875C56.9325 18.0875 56.698 17.8534 56.698 17.5645V14.763C56.698 14.474 56.9323 14.24 57.221 14.24C57.5097 14.24 57.744 14.474 57.744 14.763V17.5645C57.7438 17.8534 57.5095 18.0875 57.221 18.0875Z" fill="#368BFF"/>
<path d="M57.221 100C56.9325 100 56.698 99.7659 56.698 99.4769V96.6755C56.698 96.3865 56.9323 96.1525 57.221 96.1525C57.5097 96.1525 57.744 96.3865 57.744 96.6755V99.4769C57.7438 99.7659 57.5095 100 57.221 100Z" fill="#368BFF"/>
<path d="M17.8614 53.7208C17.8437 53.7208 17.8267 53.7201 17.8088 53.7184L15.021 53.4409C14.7332 53.4123 14.5238 53.1559 14.5522 52.8685C14.5806 52.5805 14.8433 52.373 15.1246 52.3997L17.9123 52.6773C18.2001 52.7059 18.4095 52.9623 18.3811 53.2496C18.3544 53.5195 18.1266 53.7208 17.8614 53.7208Z" fill="#368BFF"/>
<path d="M61.1434 18.2823C61.1257 18.2823 61.1087 18.2816 61.0908 18.28C60.803 18.2514 60.5936 17.995 60.622 17.7077L60.9 14.9199C60.9291 14.6319 61.1862 14.426 61.4724 14.4511C61.7602 14.4797 61.9696 14.7361 61.9412 15.0235L61.6631 17.8112C61.6357 18.0811 61.4086 18.2823 61.1434 18.2823Z" fill="#368BFF"/>
<path d="M53.0207 99.7911C53.003 99.7911 52.9861 99.7904 52.9681 99.7888C52.6803 99.7602 52.4709 99.5038 52.4993 99.2164L52.7767 96.4287C52.805 96.1407 53.0645 95.9329 53.349 95.9599C53.6368 95.9885 53.8462 96.2449 53.8178 96.5322L53.5405 99.32C53.5137 99.5898 53.2857 99.7911 53.0207 99.7911Z" fill="#368BFF"/>
<path d="M18.4447 49.8381C18.41 49.8381 18.3751 49.8348 18.3405 49.828L15.5939 49.2755C15.311 49.2185 15.1274 48.9425 15.1849 48.6596C15.2423 48.376 15.522 48.1957 15.8007 48.2499L18.5473 48.8025C18.8302 48.8595 19.0138 49.1354 18.9563 49.4183C18.9063 49.6666 18.6881 49.8381 18.4447 49.8381Z" fill="#368BFF"/>
<path d="M65.0263 18.8652C64.9916 18.8652 64.9567 18.862 64.922 18.8548C64.6391 18.7978 64.4555 18.5221 64.513 18.2394L65.0658 15.4933C65.1233 15.2092 65.4046 15.0268 65.6817 15.0838C65.9646 15.1408 66.1481 15.4165 66.0907 15.6992L65.5379 18.4453C65.4878 18.6938 65.2696 18.8652 65.0263 18.8652Z" fill="#368BFF"/>
<path d="M48.8626 99.1662C48.8279 99.1662 48.793 99.1629 48.7584 99.1557C48.4754 99.0987 48.2919 98.823 48.3493 98.5403L48.9021 95.7938C48.9596 95.5097 49.2383 95.3266 49.518 95.3843C49.8009 95.4413 49.9845 95.717 49.927 95.9997L49.3742 98.7462C49.3242 98.9947 49.1059 99.1662 48.8626 99.1662Z" fill="#368BFF"/>
<path d="M19.4079 46.0317C19.3569 46.0317 19.3053 46.0244 19.2543 46.0086L16.5764 45.1862C16.3007 45.1012 16.1455 44.8088 16.2304 44.5326C16.3144 44.2567 16.6071 44.1006 16.8835 44.1862L19.5614 45.0086C19.8378 45.0936 19.9923 45.386 19.9074 45.6622C19.8385 45.8872 19.6317 46.0317 19.4079 46.0317Z" fill="#368BFF"/>
<path d="M68.8325 19.8308C68.7816 19.8308 68.7299 19.8236 68.679 19.8078C68.4033 19.7228 68.2481 19.4304 68.333 19.1542L69.155 16.4763C69.2399 16.2006 69.5333 16.0435 69.8081 16.1298C70.0838 16.2148 70.239 16.5072 70.1541 16.7834L69.3321 19.4613C69.2632 19.6861 69.0564 19.8308 68.8325 19.8308Z" fill="#368BFF"/>
<path d="M44.7861 98.1326C44.7352 98.1326 44.6835 98.1254 44.6326 98.1096C44.3562 98.0246 44.2017 97.7322 44.2866 97.456L45.1095 94.7781C45.1935 94.5017 45.4869 94.3465 45.7626 94.4317C46.039 94.5166 46.1935 94.809 46.1086 95.0852L45.2857 97.7631C45.2168 97.9883 45.01 98.1326 44.7861 98.1326Z" fill="#368BFF"/>
<path d="M20.7456 42.3393C20.6776 42.3393 20.6097 42.3262 20.5434 42.2985L17.9601 41.215C17.6935 41.1036 17.5681 40.7972 17.6798 40.5308C17.7912 40.2637 18.0976 40.1387 18.3645 40.2507L20.9477 41.3342C21.2144 41.4456 21.3398 41.752 21.2281 42.0184C21.1441 42.2187 20.9501 42.3393 20.7456 42.3393Z" fill="#368BFF"/>
<path d="M72.5238 21.1679C72.4559 21.1679 72.3872 21.1548 72.3216 21.1272C72.055 21.0157 71.9296 20.7088 72.0412 20.4424L73.1252 17.8592C73.2367 17.5926 73.5463 17.4672 73.8099 17.5795C74.0766 17.691 74.202 17.9979 74.0903 18.2643L73.0063 20.8475C72.9221 21.0476 72.7283 21.1679 72.5238 21.1679Z" fill="#368BFF"/>
<path d="M40.8319 96.7004C40.764 96.7004 40.6954 96.6874 40.6298 96.6597C40.3631 96.5483 40.2377 96.2414 40.3494 95.975L41.4334 93.3917C41.5457 93.1254 41.8545 92.999 42.1181 93.1121C42.3847 93.2235 42.5101 93.5304 42.3984 93.7968L41.3145 96.38C41.2305 96.5801 41.0364 96.7004 40.8319 96.7004Z" fill="#368BFF"/>
<path d="M22.4414 38.7985C22.3574 38.7985 22.2725 38.7782 22.1931 38.7354L19.7304 37.4009C19.4766 37.2631 19.3821 36.9458 19.5194 36.6919C19.656 36.4374 19.9729 36.3427 20.2283 36.4809L22.691 37.8155C22.9449 37.9532 23.0393 38.2705 22.9021 38.5244C22.8074 38.6996 22.6273 38.7985 22.4414 38.7985Z" fill="#368BFF"/>
<path d="M76.0635 22.8644C75.9795 22.8644 75.8946 22.8442 75.8152 22.8014C75.5614 22.6637 75.4669 22.3463 75.6042 22.0922L76.9395 19.6291C77.076 19.3752 77.3936 19.2803 77.6484 19.4185C77.9022 19.5562 77.9967 19.8736 77.8594 20.1277L76.5242 22.5908C76.4297 22.7653 76.2494 22.8644 76.0635 22.8644Z" fill="#368BFF"/>
<path d="M37.0411 94.8839C36.9571 94.8839 36.8722 94.8637 36.7928 94.8209C36.539 94.6831 36.4446 94.3658 36.5818 94.1119L37.9164 91.6488C38.0529 91.3942 38.3698 91.3 38.6253 91.4377C38.8791 91.5755 38.9736 91.8928 38.8363 92.1467L37.5018 94.6098C37.4073 94.7848 37.227 94.8839 37.0411 94.8839Z" fill="#368BFF"/>
<path d="M24.4807 35.4424C24.3797 35.4424 24.2778 35.4133 24.188 35.3524L21.869 33.7798C21.6299 33.6177 21.5675 33.2924 21.7299 33.0537C21.8923 32.8147 22.2173 32.7522 22.4558 32.9143L24.7747 34.4869C25.0139 34.649 25.0763 34.9743 24.9139 35.213C24.8129 35.3622 24.6489 35.4424 24.4807 35.4424Z" fill="#368BFF"/>
<path d="M79.4201 24.9042C79.3191 24.9042 79.2172 24.8751 79.1274 24.8142C78.8883 24.652 78.8259 24.3268 78.9883 24.088L80.5604 21.7696C80.7221 21.5306 81.0469 21.4673 81.2863 21.6302C81.5255 21.7924 81.5878 22.1176 81.4254 22.3563L79.8533 24.6748C79.7524 24.8237 79.5883 24.9042 79.4201 24.9042Z" fill="#368BFF"/>
<path d="M33.4461 92.6995C33.3452 92.6995 33.2433 92.6704 33.1535 92.6095C32.9143 92.4473 32.8519 92.122 33.0143 91.8833L34.5871 89.5649C34.7488 89.3259 35.0736 89.2626 35.313 89.4255C35.5522 89.5877 35.6145 89.9129 35.4521 90.1516L33.8791 92.4701C33.7784 92.6192 33.6144 92.6995 33.4461 92.6995Z" fill="#368BFF"/>
<path d="M26.8446 32.3066C26.7266 32.3066 26.6077 32.267 26.51 32.1854L24.3584 30.3911C24.1362 30.2059 24.1062 29.8762 24.2914 29.6543C24.4765 29.4321 24.8053 29.403 25.0277 29.5875L27.1794 31.3818C27.4016 31.567 27.4316 31.8966 27.2464 32.1186C27.1428 32.2428 26.9942 32.3066 26.8446 32.3066Z" fill="#368BFF"/>
<path d="M82.5568 27.2672C82.4389 27.2672 82.32 27.2272 82.2223 27.146C82.0001 26.9608 81.9701 26.6311 82.1553 26.4091L83.9496 24.258C84.1348 24.036 84.4644 24.0069 84.6859 24.1912C84.9081 24.3764 84.9381 24.7061 84.7529 24.928L82.9587 27.0792C82.8551 27.2035 82.7065 27.2672 82.5568 27.2672Z" fill="#368BFF"/>
<path d="M30.0902 90.1703C29.9723 90.1703 29.8534 90.1308 29.7557 90.0491C29.5335 89.8639 29.5035 89.5342 29.6887 89.3123L31.4829 87.1606C31.6672 86.9384 31.9978 86.9089 32.2193 87.0938C32.4415 87.279 32.4715 87.6087 32.2863 87.8307L30.492 89.9823C30.3885 90.1066 30.2398 90.1703 30.0902 90.1703Z" fill="#368BFF"/>
<path d="M32.4412 26.8102C32.2884 26.8102 32.1374 26.7434 32.0338 26.615L30.2791 24.4314C30.0981 24.206 30.1337 23.877 30.3591 23.696C30.5823 23.5157 30.9129 23.5506 31.0939 23.776L32.8486 25.9596C33.0296 26.1848 32.994 26.514 32.7686 26.695C32.6722 26.7725 32.5566 26.8102 32.4412 26.8102Z" fill="#368BFF"/>
<path d="M88.0523 32.8636C87.8995 32.8636 87.7485 32.7968 87.6449 32.6684C87.4639 32.4432 87.4995 32.114 87.725 31.9332L89.908 30.178C90.1311 29.997 90.4608 30.0317 90.6428 30.2576C90.8238 30.4828 90.7882 30.812 90.5627 30.9928L88.3797 32.748C88.2833 32.8262 88.1677 32.8636 88.0523 32.8636Z" fill="#368BFF"/>
<path d="M24.2047 84.1767C24.0518 84.1767 23.8999 84.1099 23.7973 83.981C23.6163 83.756 23.6519 83.427 23.8773 83.2458L26.0613 81.4911C26.2844 81.3107 26.615 81.3447 26.7961 81.5716C26.9771 81.7968 26.9415 82.1255 26.716 82.3068L24.532 84.0615C24.4357 84.1392 24.3201 84.1767 24.2047 84.1767Z" fill="#368BFF"/>
<path d="M35.6207 24.5058C35.4495 24.5058 35.282 24.4221 35.1819 24.2683L33.6527 21.9214C33.4951 21.6797 33.5628 21.3556 33.8055 21.1981C34.0489 21.0413 34.3713 21.1092 34.5289 21.3509L36.0581 23.6978C36.2156 23.9395 36.1479 24.2636 35.9053 24.4211C35.8173 24.4784 35.7187 24.5058 35.6207 24.5058Z" fill="#368BFF"/>
<path d="M90.357 36.043C90.1855 36.043 90.0183 35.9593 89.9182 35.8055C89.7607 35.5637 89.8284 35.2396 90.0711 35.0821L92.4184 33.5524C92.6618 33.3956 92.9842 33.4635 93.1417 33.7052C93.2992 33.947 93.2315 34.2711 92.9889 34.4286L90.6416 35.9583C90.5534 36.0156 90.4547 36.043 90.357 36.043Z" fill="#368BFF"/>
<path d="M21.7367 80.7726C21.5653 80.7726 21.398 80.6888 21.2979 80.5353C21.1404 80.2933 21.2081 79.969 21.4508 79.8115L23.7972 78.2817C24.0396 78.1245 24.3637 78.1929 24.5205 78.4341C24.678 78.6761 24.6103 79.0004 24.3677 79.1579L22.0213 80.6877C21.9331 80.7451 21.8345 80.7726 21.7367 80.7726Z" fill="#368BFF"/>
<path d="M39.0132 22.5278C38.824 22.5278 38.6414 22.4252 38.5483 22.2458L37.2591 19.7591C37.1258 19.5025 37.2261 19.1868 37.4823 19.0539C37.7401 18.9229 38.0546 19.0211 38.187 19.2775L39.4762 21.7642C39.6095 22.0208 39.5092 22.3365 39.253 22.4694C39.1765 22.5087 39.0939 22.5278 39.0132 22.5278Z" fill="#368BFF"/>
<path d="M92.3362 39.4352C92.147 39.4352 91.9644 39.3326 91.8713 39.1527C91.738 38.8966 91.8383 38.5808 92.0944 38.448L94.5816 37.1588C94.8378 37.0274 95.1539 37.1265 95.2863 37.3826C95.4196 37.6388 95.3194 37.9545 95.0632 38.0874L92.5761 39.3765C92.4995 39.4161 92.4171 39.4352 92.3362 39.4352Z" fill="#368BFF"/>
<path d="M19.618 77.1408C19.4288 77.1408 19.2462 77.0382 19.1531 76.8588C19.0198 76.6022 19.1201 76.2864 19.3762 76.1536L21.8634 74.864C22.1205 74.7325 22.4357 74.8316 22.5681 75.0875C22.7014 75.3442 22.6011 75.6599 22.345 75.7927L19.8578 77.0824C19.7813 77.1217 19.6989 77.1408 19.618 77.1408Z" fill="#368BFF"/>
<path d="M42.584 20.895C42.3763 20.895 42.1799 20.7705 42.0982 20.5656L41.0613 17.963C40.9545 17.6948 41.0855 17.3905 41.354 17.2837C41.6206 17.1769 41.9263 17.3074 42.0329 17.5759L43.0698 20.1784C43.1766 20.4467 43.0456 20.751 42.7771 20.8578C42.7143 20.8832 42.6487 20.895 42.584 20.895Z" fill="#368BFF"/>
<path d="M93.9687 43.0073C93.7609 43.0073 93.5645 42.8829 93.4829 42.6779C93.3761 42.4096 93.5071 42.1053 93.7756 41.9985L96.3781 40.962C96.644 40.8552 96.9505 40.9857 97.057 41.2542C97.1638 41.5225 97.0328 41.8268 96.7643 41.9336L94.1618 42.9701C94.0987 42.9955 94.0334 43.0073 93.9687 43.0073Z" fill="#368BFF"/>
<path d="M17.8696 73.3156C17.6618 73.3156 17.4655 73.1911 17.3838 72.9861C17.277 72.7179 17.408 72.4135 17.6765 72.3067L20.279 71.2702C20.544 71.1628 20.8514 71.2937 20.958 71.5625C21.0647 71.8307 20.9338 72.135 20.6653 72.2418L18.0627 73.2783C17.9999 73.3039 17.9343 73.3156 17.8696 73.3156Z" fill="#368BFF"/>
<path d="M46.3012 19.625C46.0732 19.625 45.8648 19.4759 45.7985 19.2463L45.0249 16.5535C44.9457 16.2759 45.1056 15.9865 45.3829 15.9064C45.6649 15.8264 45.9504 15.9872 46.0304 16.265L46.804 18.9578C46.8831 19.2353 46.7233 19.5248 46.4459 19.6048C46.3973 19.6185 46.3489 19.625 46.3012 19.625Z" fill="#368BFF"/>
<path d="M95.2389 46.7219C95.0118 46.7219 94.8025 46.5728 94.7361 46.3431C94.657 46.0656 94.8169 45.7761 95.0942 45.6961L97.7866 44.9225C98.0639 44.8425 98.3531 45.003 98.4341 45.281C98.5132 45.5586 98.3533 45.848 98.076 45.9281L95.3836 46.7017C95.335 46.7154 95.2866 46.7219 95.2389 46.7219Z" fill="#368BFF"/>
<path d="M16.5103 69.3373C16.2823 69.3373 16.0738 69.1882 16.0075 68.9585C15.9284 68.681 16.0882 68.3915 16.3656 68.3115L19.0579 67.5384C19.3392 67.4595 19.6254 67.6196 19.7054 67.8969C19.7845 68.1745 19.6247 68.4639 19.3473 68.5439L16.655 69.3171C16.6064 69.3308 16.558 69.3373 16.5103 69.3373Z" fill="#368BFF"/>
<path d="M50.1224 18.7291C49.8751 18.7291 49.6552 18.5525 49.6092 18.2998L49.1064 15.544C49.0538 15.2599 49.2423 14.9874 49.5268 14.9358C49.8048 14.8869 50.0829 15.0719 50.1345 15.3564L50.6373 18.1123C50.6899 18.3964 50.5014 18.6688 50.2169 18.7205C50.1855 18.7263 50.1541 18.7291 50.1224 18.7291Z" fill="#368BFF"/>
<path d="M96.1342 50.5452C95.8869 50.5452 95.6663 50.3686 95.6209 50.1159C95.5683 49.8319 95.7568 49.5594 96.0413 49.5078L98.7967 49.0054C99.0773 48.9573 99.3537 49.1416 99.4045 49.4261C99.457 49.7102 99.2686 49.9826 98.9843 50.0343L96.2289 50.5366C96.1972 50.5424 96.1656 50.5452 96.1342 50.5452Z" fill="#368BFF"/>
<path d="M15.5498 65.243C15.3025 65.243 15.0819 65.0664 15.0366 64.8138C14.984 64.5297 15.1724 64.2573 15.457 64.2056L18.2133 63.7028C18.4937 63.6514 18.7703 63.8389 18.821 64.1235C18.8736 64.4076 18.6851 64.68 18.4006 64.7316L15.6443 65.2344C15.6129 65.2402 15.5812 65.243 15.5498 65.243Z" fill="#368BFF"/>
<path d="M54.0165 18.217C53.7473 18.217 53.5186 18.0102 53.496 17.7366L53.2689 14.9444C53.2454 14.6566 53.4597 14.4042 53.7482 14.3807C54.0125 14.3553 54.2873 14.571 54.3115 14.8595L54.5386 17.6517C54.5621 17.9395 54.3478 18.1919 54.0593 18.2154C54.0456 18.2166 54.0309 18.217 54.0165 18.217Z" fill="#368BFF"/>
<path d="M96.6458 54.4392C96.3766 54.4392 96.1479 54.2324 96.1253 53.9588C96.1018 53.671 96.3161 53.4185 96.6046 53.395L99.3963 53.168C99.6655 53.1445 99.9363 53.3583 99.9596 53.6468C99.9831 53.9346 99.7688 54.187 99.4803 54.2105L96.6886 54.4376C96.6748 54.4388 96.6602 54.4392 96.6458 54.4392Z" fill="#368BFF"/>
<path d="M15.0011 61.0738C14.7319 61.0738 14.5032 60.8665 14.4806 60.5933C14.4571 60.3051 14.6721 60.0531 14.9599 60.0296L17.7525 59.803C18.0201 59.7799 18.2925 59.9937 18.3158 60.2818C18.3391 60.5698 18.1243 60.822 17.8365 60.8455L15.0439 61.0721C15.0304 61.0735 15.0157 61.0738 15.0011 61.0738Z" fill="#368BFF"/>
<defs>
<radialGradient id="paint0_radial_381_192" cx="0" cy="0" r="1" gradientUnits="userSpaceOnUse" gradientTransform="translate(57.5502 57.5502) rotate(-90) scale(57.5502)">
<stop offset="0.744792" stop-color="#368BFF" stop-opacity="0"/>
<stop offset="1" stop-color="#368BFF"/>
</radialGradient>
</defs>
</svg>
