<svg width="116" height="116" viewBox="0 0 116 116" fill="none" xmlns="http://www.w3.org/2000/svg">
<mask id="path-1-inside-1_381_267" fill="white">
<path fill-rule="evenodd" clip-rule="evenodd" d="M57.5502 -2.029e-05C25.7661 -2.30686e-05 -7.44894e-06 25.7661 -1.02276e-05 57.5502C-1.30062e-05 89.3343 25.7661 115.1 57.5502 115.1C89.3343 115.1 115.1 89.3343 115.1 57.5502C115.1 25.7661 89.3343 -1.75113e-05 57.5502 -2.029e-05ZM57.5503 17.6708C35.5256 17.6708 17.6711 35.5253 17.6711 57.55C17.6711 79.5746 35.5256 97.4291 57.5503 97.4292C79.575 97.4292 97.4295 79.5746 97.4295 57.55C97.4295 35.5253 79.575 17.6708 57.5503 17.6708Z"/>
</mask>
<path fill-rule="evenodd" clip-rule="evenodd" d="M57.5502 -2.029e-05C25.7661 -2.30686e-05 -7.44894e-06 25.7661 -1.02276e-05 57.5502C-1.30062e-05 89.3343 25.7661 115.1 57.5502 115.1C89.3343 115.1 115.1 89.3343 115.1 57.5502C115.1 25.7661 89.3343 -1.75113e-05 57.5502 -2.029e-05ZM57.5503 17.6708C35.5256 17.6708 17.6711 35.5253 17.6711 57.55C17.6711 79.5746 35.5256 97.4291 57.5503 97.4292C79.575 97.4292 97.4295 79.5746 97.4295 57.55C97.4295 35.5253 79.575 17.6708 57.5503 17.6708Z" fill="url(#paint0_radial_381_267)"/>
<path d="M0.99999 57.5502C0.999993 26.3184 26.3184 0.999977 57.5502 0.99998L57.5502 -1.00002C25.2138 -1.00002 -1.00001 25.2138 -1.00001 57.5502L0.99999 57.5502ZM57.5502 114.1C26.3184 114.1 0.999987 88.782 0.99999 57.5502L-1.00001 57.5502C-1.00001 89.8866 25.2138 116.1 57.5502 116.1L57.5502 114.1ZM114.1 57.5502C114.1 88.782 88.782 114.1 57.5502 114.1L57.5502 116.1C89.8866 116.1 116.1 89.8866 116.1 57.5502L114.1 57.5502ZM57.5502 0.99998C88.782 0.999982 114.1 26.3184 114.1 57.5502L116.1 57.5502C116.1 25.2138 89.8866 -1.00002 57.5502 -1.00002L57.5502 0.99998ZM18.6711 57.55C18.6711 36.0776 36.0779 18.6708 57.5503 18.6708L57.5503 16.6708C34.9734 16.6708 16.6711 34.973 16.6711 57.55L18.6711 57.55ZM57.5503 96.4292C36.0779 96.4291 18.6711 79.0223 18.6711 57.55L16.6711 57.55C16.6711 80.1269 34.9733 98.4291 57.5503 98.4292L57.5503 96.4292ZM96.4295 57.55C96.4295 79.0223 79.0227 96.4292 57.5503 96.4292L57.5503 98.4292C80.1273 98.4292 98.4295 80.1269 98.4295 57.55L96.4295 57.55ZM57.5503 18.6708C79.0227 18.6708 96.4295 36.0776 96.4295 57.55L98.4295 57.55C98.4295 34.973 80.1273 16.6708 57.5503 16.6708L57.5503 18.6708Z" fill="#7AC241" mask="url(#path-1-inside-1_381_267)"/>
<path d="M87.1693 87.5933C87.0351 87.5933 86.9018 87.5423 86.7999 87.4402L83.1157 83.756C82.9112 83.5519 82.9112 83.2204 83.1157 83.0164C83.3193 82.8118 83.6508 82.8118 83.8544 83.0164L87.5386 86.7005C87.7431 86.9046 87.7431 87.2361 87.5386 87.4402C87.4367 87.5423 87.3034 87.5933 87.1693 87.5933Z" fill="#7AC241"/>
<path d="M99.3677 61.8422C99.35 61.8422 99.333 61.8415 99.3151 61.8399L96.5281 61.5619C96.2403 61.5332 96.0309 61.2768 96.0592 60.9895C96.0883 60.7015 96.3471 60.4928 96.6316 60.5207L99.4186 60.7987C99.7064 60.8273 99.9158 61.0837 99.8875 61.3711C99.86 61.641 99.6329 61.8422 99.3677 61.8422Z" fill="#7AC241"/>
<path d="M98.7414 66.0009C98.7067 66.0009 98.6718 65.9976 98.6371 65.9904L95.8915 65.4376C95.6086 65.3806 95.425 65.1049 95.4825 64.822C95.54 64.5379 95.8212 64.3541 96.0983 64.4125L98.844 64.9653C99.1269 65.0223 99.3105 65.298 99.253 65.5807C99.203 65.8296 98.9847 66.0009 98.7414 66.0009Z" fill="#7AC241"/>
<path d="M97.7106 70.0773C97.6597 70.0773 97.608 70.0701 97.5571 70.0542L94.8792 69.2323C94.6034 69.1473 94.4483 68.8549 94.5332 68.5787C94.6172 68.3028 94.9115 68.1471 95.1863 68.2323L97.8642 69.0543C98.1399 69.1392 98.2951 69.4317 98.2102 69.7078C98.1415 69.9326 97.9344 70.0773 97.7106 70.0773Z" fill="#7AC241"/>
<path d="M96.2773 74.0299C96.2093 74.0299 96.1407 74.0168 96.0751 73.9892L93.4919 72.9052C93.2252 72.7937 93.0998 72.4869 93.2113 72.2205C93.3227 71.9541 93.6331 71.8294 93.896 71.9408L96.4792 73.0248C96.7458 73.1362 96.8712 73.4431 96.7598 73.7095C96.6758 73.9096 96.4818 74.0299 96.2773 74.0299Z" fill="#7AC241"/>
<path d="M94.4589 77.8221C94.3749 77.8221 94.29 77.8019 94.2107 77.7591L91.748 76.4245C91.4941 76.2868 91.3997 75.9694 91.5369 75.7156C91.6745 75.4611 91.9904 75.3668 92.2459 75.5046L94.7086 76.8391C94.9624 76.9769 95.0569 77.2942 94.9196 77.548C94.8249 77.7232 94.6448 77.8221 94.4589 77.8221Z" fill="#7AC241"/>
<path d="M92.2746 81.4147C92.1736 81.4147 92.0717 81.3857 91.9819 81.3247L89.663 79.7526C89.4238 79.5904 89.3615 79.2652 89.5232 79.0265C89.6865 78.7875 90.0113 78.7242 90.2498 78.8871L92.5687 80.4592C92.8079 80.6214 92.8702 80.9466 92.7085 81.1853C92.6066 81.3342 92.4426 81.4147 92.2746 81.4147Z" fill="#7AC241"/>
<path d="M89.7448 84.7739C89.6259 84.7739 89.508 84.7338 89.4103 84.6526L87.2595 82.8584C87.0373 82.6732 87.0073 82.3435 87.1925 82.1215C87.3777 81.8989 87.7074 81.8714 87.9289 82.0547L90.0796 83.849C90.3018 84.0342 90.3318 84.3639 90.1466 84.5859C90.0431 84.7101 89.8944 84.7739 89.7448 84.7739Z" fill="#7AC241"/>
<path d="M83.7531 90.6585C83.6003 90.6585 83.4483 90.5917 83.3457 90.4628L81.591 88.2788C81.41 88.0538 81.4456 87.7249 81.671 87.5436C81.8942 87.3631 82.2255 87.3977 82.4058 87.6241L84.1605 89.8081C84.3415 90.0333 84.3059 90.3621 84.0805 90.5433C83.9844 90.6208 83.8688 90.6585 83.7531 90.6585Z" fill="#7AC241"/>
<path d="M80.3499 93.1269C80.1787 93.1269 80.0112 93.0431 79.9112 92.8895L78.3812 90.5427C78.2237 90.3007 78.2914 89.9764 78.534 89.8189C78.7774 89.6621 79.0999 89.7305 79.2574 89.9713L80.7874 92.3181C80.9449 92.5601 80.8772 92.8844 80.6345 93.0419C80.5465 93.0994 80.4479 93.1269 80.3499 93.1269Z" fill="#7AC241"/>
<path d="M76.7178 95.2457C76.5286 95.2457 76.346 95.1431 76.2529 94.9637L74.9628 92.4765C74.8295 92.2199 74.9298 91.9042 75.1859 91.7713C75.4437 91.6397 75.7583 91.739 75.8907 91.9949L77.1808 94.4821C77.3141 94.7387 77.2138 95.0544 76.9577 95.1873C76.8811 95.2266 76.7985 95.2457 76.7178 95.2457Z" fill="#7AC241"/>
<path d="M72.8907 96.9937C72.6829 96.9937 72.4865 96.8692 72.4049 96.6643L71.3686 94.0617C71.2618 93.7935 71.3928 93.4891 71.6613 93.3823C71.9263 93.276 72.2336 93.4061 72.3402 93.6746L73.3765 96.2771C73.4832 96.5454 73.3522 96.8497 73.0838 96.9565C73.0209 96.9821 72.9553 96.9937 72.8907 96.9937Z" fill="#7AC241"/>
<path d="M68.914 98.3532C68.6869 98.3532 68.4775 98.2041 68.4112 97.9745L67.6376 95.2821C67.5585 95.0045 67.7184 94.7151 67.9957 94.6351C68.2737 94.5543 68.5622 94.7156 68.6432 94.9936L69.4168 97.686C69.4959 97.9635 69.3361 98.253 69.0587 98.333C69.0103 98.3467 68.9617 98.3532 68.914 98.3532Z" fill="#7AC241"/>
<path d="M64.8166 99.3122C64.5693 99.3122 64.3494 99.1356 64.3034 98.883L63.8006 96.1271C63.748 95.843 63.9365 95.5706 64.2208 95.5189C64.4988 95.4691 64.7768 95.6548 64.8285 95.9396L65.3313 98.6955C65.3838 98.9795 65.1954 99.252 64.9111 99.3036C64.8797 99.3094 64.8483 99.3122 64.8166 99.3122Z" fill="#7AC241"/>
<path d="M60.649 99.8606C60.3798 99.8606 60.1511 99.6533 60.1285 99.3802L59.9021 96.588C59.8786 96.3 60.0936 96.0478 60.3814 96.0243C60.6464 95.9996 60.9205 96.215 60.9447 96.5031L61.171 99.2952C61.1945 99.5835 60.9796 99.8355 60.6918 99.859C60.678 99.8601 60.6634 99.8606 60.649 99.8606Z" fill="#7AC241"/>
<path d="M27.2706 87.5939C27.1363 87.5939 27.003 87.5429 26.9011 87.4408C26.6966 87.2367 26.6966 86.9052 26.9011 86.7012L30.5853 83.017C30.7889 82.8125 31.1204 82.8125 31.324 83.017C31.5285 83.221 31.5285 83.5525 31.324 83.7566L27.6398 87.4408C27.5381 87.5429 27.4046 87.5939 27.2706 87.5939Z" fill="#7AC241"/>
<path d="M83.4886 31.376C83.3544 31.376 83.2211 31.3251 83.1192 31.2229C82.9147 31.0189 82.9147 30.6874 83.1192 30.4833L86.8034 26.7989C87.0069 26.5944 87.3385 26.5944 87.5421 26.7989C87.7466 27.0029 87.7466 27.3345 87.5421 27.5385L83.8579 31.2229C83.7562 31.3253 83.6227 31.376 83.4886 31.376Z" fill="#7AC241"/>
<path d="M30.9539 31.376C30.8197 31.376 30.6864 31.3251 30.5845 31.2229L26.9003 27.5385C26.6958 27.3345 26.6958 27.0029 26.9003 26.7989C27.1038 26.5944 27.4354 26.5944 27.639 26.7989L31.3232 30.4833C31.5277 30.6874 31.5277 31.0189 31.3232 31.2229C31.2215 31.3253 31.0882 31.376 30.9539 31.376Z" fill="#7AC241"/>
<path d="M99.5779 57.643H96.7764C96.4879 57.643 96.2534 57.409 96.2534 57.12C96.2534 56.831 96.4877 56.597 96.7764 56.597H99.5779C99.8664 56.597 100.101 56.831 100.101 57.12C100.101 57.409 99.8664 57.643 99.5779 57.643Z" fill="#7AC241"/>
<path d="M17.665 57.643H14.8635C14.575 57.643 14.3405 57.409 14.3405 57.12C14.3405 56.831 14.5748 56.597 14.8635 56.597H17.665C17.9535 56.597 18.188 56.831 18.188 57.12C18.188 57.409 17.9537 57.643 17.665 57.643Z" fill="#7AC241"/>
<path d="M57.221 18.0875C56.9325 18.0875 56.6979 17.8534 56.6979 17.5645V14.763C56.6979 14.474 56.9322 14.24 57.221 14.24C57.5097 14.24 57.744 14.474 57.744 14.763V17.5645C57.7437 17.8534 57.5095 18.0875 57.221 18.0875Z" fill="#7AC241"/>
<path d="M57.221 100C56.9325 100 56.6979 99.7659 56.6979 99.4769V96.6755C56.6979 96.3865 56.9322 96.1525 57.221 96.1525C57.5097 96.1525 57.744 96.3865 57.744 96.6755V99.4769C57.7437 99.7659 57.5095 100 57.221 100Z" fill="#7AC241"/>
<path d="M17.8613 53.7208C17.8436 53.7208 17.8266 53.7201 17.8087 53.7184L15.021 53.4409C14.7332 53.4123 14.5238 53.1559 14.5522 52.8685C14.5806 52.5805 14.8432 52.373 15.1245 52.3997L17.9123 52.6773C18.2001 52.7059 18.4095 52.9623 18.3811 53.2496C18.3543 53.5195 18.1265 53.7208 17.8613 53.7208Z" fill="#7AC241"/>
<path d="M61.1433 18.2823C61.1256 18.2823 61.1086 18.2816 61.0907 18.28C60.8029 18.2514 60.5935 17.995 60.6219 17.7077L60.8999 14.9199C60.929 14.6319 61.1861 14.426 61.4723 14.4511C61.7601 14.4797 61.9695 14.7361 61.9411 15.0235L61.6631 17.8112C61.6356 18.0811 61.4085 18.2823 61.1433 18.2823Z" fill="#7AC241"/>
<path d="M53.0206 99.7911C53.003 99.7911 52.986 99.7904 52.9681 99.7888C52.6803 99.7602 52.4709 99.5038 52.4992 99.2164L52.7766 96.4287C52.805 96.1407 53.0644 95.9329 53.3489 95.9599C53.6367 95.9885 53.8461 96.2449 53.8177 96.5322L53.5404 99.32C53.5136 99.5898 53.2856 99.7911 53.0206 99.7911Z" fill="#7AC241"/>
<path d="M18.4446 49.8381C18.41 49.8381 18.3751 49.8348 18.3404 49.828L15.5938 49.2755C15.3109 49.2185 15.1273 48.9425 15.1848 48.6596C15.2423 48.376 15.5219 48.1957 15.8007 48.2499L18.5472 48.8025C18.8301 48.8595 19.0137 49.1354 18.9562 49.4183C18.9062 49.6666 18.688 49.8381 18.4446 49.8381Z" fill="#7AC241"/>
<path d="M65.0262 18.8652C64.9915 18.8652 64.9566 18.862 64.922 18.8548C64.639 18.7978 64.4555 18.5221 64.5129 18.2394L65.0657 15.4933C65.1232 15.2092 65.4045 15.0268 65.6816 15.0838C65.9645 15.1408 66.1481 15.4165 66.0906 15.6992L65.5378 18.4453C65.4878 18.6938 65.2696 18.8652 65.0262 18.8652Z" fill="#7AC241"/>
<path d="M48.8625 99.1662C48.8279 99.1662 48.793 99.1629 48.7583 99.1557C48.4754 99.0987 48.2918 98.823 48.3493 98.5403L48.9021 95.7938C48.9595 95.5097 49.2383 95.3266 49.5179 95.3843C49.8008 95.4413 49.9844 95.717 49.9269 95.9997L49.3741 98.7462C49.3241 98.9947 49.1059 99.1662 48.8625 99.1662Z" fill="#7AC241"/>
<path d="M19.4078 46.0317C19.3568 46.0317 19.3052 46.0244 19.2542 46.0086L16.5763 45.1862C16.3006 45.1012 16.1454 44.8088 16.2303 44.5326C16.3143 44.2567 16.607 44.1006 16.8834 44.1862L19.5613 45.0086C19.8377 45.0936 19.9922 45.386 19.9073 45.6622C19.8384 45.8872 19.6316 46.0317 19.4078 46.0317Z" fill="#7AC241"/>
<path d="M68.8325 19.8308C68.7815 19.8308 68.7298 19.8236 68.6789 19.8078C68.4032 19.7228 68.248 19.4304 68.3329 19.1542L69.1549 16.4763C69.2398 16.2006 69.5332 16.0435 69.808 16.1298C70.0837 16.2148 70.2389 16.5072 70.154 16.7834L69.332 19.4613C69.2631 19.6861 69.0563 19.8308 68.8325 19.8308Z" fill="#7AC241"/>
<path d="M44.7861 98.1326C44.7351 98.1326 44.6835 98.1254 44.6325 98.1096C44.3561 98.0246 44.2016 97.7322 44.2865 97.456L45.1095 94.7781C45.1935 94.5017 45.4868 94.3465 45.7625 94.4317C46.0389 94.5166 46.1934 94.809 46.1085 95.0852L45.2856 97.7631C45.2167 97.9883 45.0099 98.1326 44.7861 98.1326Z" fill="#7AC241"/>
<path d="M20.7455 42.3393C20.6775 42.3393 20.6096 42.3262 20.5433 42.2985L17.96 41.215C17.6934 41.1036 17.568 40.7972 17.6797 40.5308C17.7911 40.2637 18.0976 40.1387 18.3644 40.2507L20.9476 41.3342C21.2143 41.4456 21.3397 41.752 21.228 42.0184C21.144 42.2187 20.95 42.3393 20.7455 42.3393Z" fill="#7AC241"/>
<path d="M72.5237 21.1679C72.4558 21.1679 72.3871 21.1548 72.3215 21.1272C72.0549 21.0157 71.9295 20.7088 72.0412 20.4424L73.1251 17.8592C73.2366 17.5926 73.5463 17.4672 73.8099 17.5795C74.0765 17.691 74.2019 17.9979 74.0902 18.2643L73.0063 20.8475C72.922 21.0476 72.7282 21.1679 72.5237 21.1679Z" fill="#7AC241"/>
<path d="M40.8319 96.7004C40.7639 96.7004 40.6953 96.6874 40.6297 96.6597C40.3631 96.5483 40.2377 96.2414 40.3493 95.975L41.4333 93.3917C41.5457 93.1254 41.8544 92.999 42.118 93.1121C42.3847 93.2235 42.5101 93.5304 42.3984 93.7968L41.3144 96.38C41.2304 96.5801 41.0364 96.7004 40.8319 96.7004Z" fill="#7AC241"/>
<path d="M22.4413 38.7985C22.3573 38.7985 22.2724 38.7782 22.193 38.7354L19.7303 37.4009C19.4765 37.2631 19.382 36.9458 19.5193 36.6919C19.6559 36.4374 19.9728 36.3427 20.2282 36.4809L22.6909 37.8155C22.9448 37.9532 23.0392 38.2705 22.902 38.5244C22.8073 38.6996 22.6272 38.7985 22.4413 38.7985Z" fill="#7AC241"/>
<path d="M76.0634 22.8644C75.9794 22.8644 75.8945 22.8442 75.8151 22.8014C75.5613 22.6637 75.4668 22.3463 75.6041 22.0922L76.9394 19.6291C77.0759 19.3752 77.3935 19.2803 77.6483 19.4185C77.9021 19.5562 77.9966 19.8736 77.8593 20.1277L76.5241 22.5908C76.4296 22.7653 76.2493 22.8644 76.0634 22.8644Z" fill="#7AC241"/>
<path d="M37.041 94.8839C36.957 94.8839 36.8721 94.8637 36.7928 94.8209C36.5389 94.6831 36.4445 94.3658 36.5817 94.1119L37.9163 91.6488C38.0529 91.3942 38.3697 91.3 38.6252 91.4377C38.879 91.5755 38.9735 91.8928 38.8362 92.1467L37.5017 94.6098C37.4072 94.7848 37.2269 94.8839 37.041 94.8839Z" fill="#7AC241"/>
<path d="M24.4806 35.4424C24.3796 35.4424 24.2777 35.4133 24.1879 35.3524L21.8689 33.7798C21.6298 33.6177 21.5674 33.2924 21.7298 33.0537C21.8922 32.8147 22.2172 32.7522 22.4557 32.9143L24.7746 34.4869C25.0138 34.649 25.0762 34.9743 24.9138 35.213C24.8128 35.3622 24.6488 35.4424 24.4806 35.4424Z" fill="#7AC241"/>
<path d="M79.4201 24.9042C79.3191 24.9042 79.2172 24.8751 79.1274 24.8142C78.8882 24.652 78.8258 24.3268 78.9882 24.088L80.5603 21.7696C80.722 21.5306 81.0468 21.4673 81.2862 21.6302C81.5254 21.7924 81.5878 22.1176 81.4254 22.3563L79.8533 24.6748C79.7523 24.8237 79.5883 24.9042 79.4201 24.9042Z" fill="#7AC241"/>
<path d="M33.4461 92.6995C33.3451 92.6995 33.2432 92.6704 33.1534 92.6095C32.9142 92.4473 32.8519 92.122 33.0143 91.8833L34.5871 89.5649C34.7488 89.3259 35.0735 89.2626 35.313 89.4255C35.5521 89.5877 35.6145 89.9129 35.4521 90.1516L33.8791 92.4701C33.7783 92.6192 33.6143 92.6995 33.4461 92.6995Z" fill="#7AC241"/>
<path d="M26.8445 32.3066C26.7265 32.3066 26.6076 32.267 26.5099 32.1854L24.3583 30.3911C24.1361 30.2059 24.1061 29.8762 24.2913 29.6543C24.4765 29.4321 24.8052 29.403 25.0276 29.5875L27.1793 31.3818C27.4015 31.567 27.4315 31.8966 27.2463 32.1186C27.1428 32.2428 26.9941 32.3066 26.8445 32.3066Z" fill="#7AC241"/>
<path d="M82.5568 27.2672C82.4388 27.2672 82.3199 27.2272 82.2222 27.146C82 26.9608 81.97 26.6311 82.1552 26.4091L83.9495 24.258C84.1347 24.036 84.4643 24.0069 84.6858 24.1912C84.908 24.3764 84.938 24.7061 84.7528 24.928L82.9586 27.0792C82.855 27.2035 82.7064 27.2672 82.5568 27.2672Z" fill="#7AC241"/>
<path d="M30.0901 90.1703C29.9722 90.1703 29.8533 90.1308 29.7556 90.0491C29.5334 89.8639 29.5034 89.5342 29.6886 89.3123L31.4828 87.1606C31.6671 86.9384 31.9977 86.9089 32.2192 87.0938C32.4414 87.279 32.4714 87.6087 32.2862 87.8307L30.4919 89.9823C30.3884 90.1066 30.2397 90.1703 30.0901 90.1703Z" fill="#7AC241"/>
<path d="M32.4411 26.8102C32.2883 26.8102 32.1373 26.7434 32.0338 26.615L30.279 24.4314C30.098 24.206 30.1336 23.877 30.3591 23.696C30.5822 23.5157 30.9128 23.5506 31.0938 23.776L32.8485 25.9596C33.0295 26.1848 32.9939 26.514 32.7685 26.695C32.6722 26.7725 32.5565 26.8102 32.4411 26.8102Z" fill="#7AC241"/>
<path d="M88.0522 32.8636C87.8994 32.8636 87.7484 32.7968 87.6448 32.6684C87.4638 32.4432 87.4994 32.114 87.7249 31.9332L89.9079 30.178C90.131 29.997 90.4607 30.0317 90.6427 30.2576C90.8237 30.4828 90.7881 30.812 90.5626 30.9928L88.3796 32.748C88.2833 32.8262 88.1676 32.8636 88.0522 32.8636Z" fill="#7AC241"/>
<path d="M24.2046 84.1767C24.0517 84.1767 23.8998 84.1099 23.7972 83.981C23.6162 83.756 23.6518 83.427 23.8772 83.2458L26.0612 81.4911C26.2844 81.3107 26.615 81.3447 26.796 81.5716C26.977 81.7968 26.9414 82.1255 26.7159 82.3068L24.532 84.0615C24.4356 84.1392 24.32 84.1767 24.2046 84.1767Z" fill="#7AC241"/>
<path d="M35.6207 24.5058C35.4494 24.5058 35.2819 24.4221 35.1819 24.2683L33.6526 21.9214C33.4951 21.6797 33.5628 21.3556 33.8055 21.1981C34.0488 21.0413 34.3713 21.1092 34.5288 21.3509L36.0581 23.6978C36.2156 23.9395 36.1479 24.2636 35.9052 24.4211C35.8173 24.4784 35.7186 24.5058 35.6207 24.5058Z" fill="#7AC241"/>
<path d="M90.3569 36.043C90.1855 36.043 90.0182 35.9593 89.9181 35.8055C89.7606 35.5637 89.8283 35.2396 90.071 35.0821L92.4183 33.5524C92.6617 33.3956 92.9841 33.4635 93.1416 33.7052C93.2992 33.947 93.2315 34.2711 92.9888 34.4286L90.6415 35.9583C90.5533 36.0156 90.4546 36.043 90.3569 36.043Z" fill="#7AC241"/>
<path d="M21.7367 80.7726C21.5652 80.7726 21.3979 80.6888 21.2979 80.5353C21.1403 80.2933 21.2081 79.969 21.4507 79.8115L23.7971 78.2817C24.0395 78.1245 24.3636 78.1929 24.5204 78.4341C24.678 78.6761 24.6102 79.0004 24.3676 79.1579L22.0212 80.6877C21.933 80.7451 21.8344 80.7726 21.7367 80.7726Z" fill="#7AC241"/>
<path d="M39.0131 22.5278C38.824 22.5278 38.6413 22.4252 38.5483 22.2458L37.2591 19.7591C37.1258 19.5025 37.226 19.1868 37.4822 19.0539C37.74 18.9229 38.0546 19.0211 38.1869 19.2775L39.4761 21.7642C39.6094 22.0208 39.5091 22.3365 39.253 22.4694C39.1764 22.5087 39.0938 22.5278 39.0131 22.5278Z" fill="#7AC241"/>
<path d="M92.3361 39.4352C92.147 39.4352 91.9643 39.3326 91.8713 39.1527C91.738 38.8966 91.8382 38.5808 92.0944 38.448L94.5815 37.1588C94.8377 37.0274 95.1539 37.1265 95.2863 37.3826C95.4196 37.6388 95.3193 37.9545 95.0631 38.0874L92.576 39.3765C92.4995 39.4161 92.4171 39.4352 92.3361 39.4352Z" fill="#7AC241"/>
<path d="M19.6179 77.1408C19.4287 77.1408 19.2461 77.0382 19.153 76.8588C19.0197 76.6022 19.12 76.2864 19.3762 76.1536L21.8633 74.864C22.1204 74.7325 22.4356 74.8316 22.568 75.0875C22.7013 75.3442 22.6011 75.6599 22.3449 75.7927L19.8578 77.0824C19.7812 77.1217 19.6989 77.1408 19.6179 77.1408Z" fill="#7AC241"/>
<path d="M42.5839 20.895C42.3762 20.895 42.1798 20.7705 42.0982 20.5656L41.0612 17.963C40.9544 17.6948 41.0854 17.3905 41.3539 17.2837C41.6205 17.1769 41.9262 17.3074 42.0328 17.5759L43.0697 20.1784C43.1765 20.4467 43.0455 20.751 42.7771 20.8578C42.7142 20.8832 42.6486 20.895 42.5839 20.895Z" fill="#7AC241"/>
<path d="M93.9686 43.0073C93.7608 43.0073 93.5645 42.8829 93.4828 42.6779C93.376 42.4096 93.507 42.1053 93.7755 41.9985L96.378 40.962C96.644 40.8552 96.9504 40.9857 97.0569 41.2542C97.1637 41.5225 97.0328 41.8268 96.7643 41.9336L94.1617 42.9701C94.0987 42.9955 94.0333 43.0073 93.9686 43.0073Z" fill="#7AC241"/>
<path d="M17.8695 73.3156C17.6618 73.3156 17.4654 73.1911 17.3838 72.9861C17.277 72.7179 17.4079 72.4135 17.6764 72.3067L20.279 71.2702C20.544 71.1628 20.8513 71.2937 20.9579 71.5625C21.0647 71.8307 20.9337 72.135 20.6652 72.2418L18.0627 73.2783C17.9998 73.3039 17.9342 73.3156 17.8695 73.3156Z" fill="#7AC241"/>
<path d="M46.3012 19.625C46.0731 19.625 45.8647 19.4759 45.7984 19.2463L45.0248 16.5535C44.9457 16.2759 45.1055 15.9865 45.3828 15.9064C45.6648 15.8264 45.9503 15.9872 46.0303 16.265L46.8039 18.9578C46.883 19.2353 46.7232 19.5248 46.4459 19.6048C46.3972 19.6185 46.3489 19.625 46.3012 19.625Z" fill="#7AC241"/>
<path d="M95.2388 46.7219C95.0118 46.7219 94.8024 46.5728 94.7361 46.3431C94.6569 46.0656 94.8168 45.7761 95.0941 45.6961L97.7865 44.9225C98.0638 44.8425 98.353 45.003 98.434 45.281C98.5131 45.5586 98.3532 45.848 98.0759 45.9281L95.3835 46.7017C95.3349 46.7154 95.2865 46.7219 95.2388 46.7219Z" fill="#7AC241"/>
<path d="M16.5102 69.3373C16.2822 69.3373 16.0738 69.1882 16.0074 68.9585C15.9283 68.681 16.0882 68.3915 16.3655 68.3115L19.0579 67.5384C19.3391 67.4595 19.6253 67.6196 19.7054 67.8969C19.7845 68.1745 19.6246 68.4639 19.3473 68.5439L16.6549 69.3171C16.6063 69.3308 16.5579 69.3373 16.5102 69.3373Z" fill="#7AC241"/>
<path d="M50.1223 18.7291C49.875 18.7291 49.6552 18.5525 49.6091 18.2998L49.1063 15.544C49.0537 15.2599 49.2422 14.9874 49.5267 14.9358C49.8048 14.8869 50.0828 15.0719 50.1344 15.3564L50.6372 18.1123C50.6898 18.3964 50.5013 18.6688 50.2168 18.7205C50.1854 18.7263 50.154 18.7291 50.1223 18.7291Z" fill="#7AC241"/>
<path d="M96.1341 50.5452C95.8868 50.5452 95.6662 50.3686 95.6208 50.1159C95.5682 49.8319 95.7567 49.5594 96.0413 49.5078L98.7966 49.0054C99.0772 48.9573 99.3536 49.1416 99.4044 49.4261C99.4569 49.7102 99.2685 49.9826 98.9842 50.0343L96.2288 50.5366C96.1971 50.5424 96.1655 50.5452 96.1341 50.5452Z" fill="#7AC241"/>
<path d="M15.5497 65.243C15.3024 65.243 15.0818 65.0664 15.0365 64.8138C14.9839 64.5297 15.1724 64.2573 15.4569 64.2056L18.2132 63.7028C18.4936 63.6514 18.7702 63.8389 18.8209 64.1235C18.8735 64.4076 18.6851 64.68 18.4005 64.7316L15.6442 65.2344C15.6128 65.2402 15.5811 65.243 15.5497 65.243Z" fill="#7AC241"/>
<path d="M54.0164 18.217C53.7472 18.217 53.5185 18.0102 53.496 17.7366L53.2689 14.9444C53.2454 14.6566 53.4597 14.4042 53.7482 14.3807C54.0125 14.3553 54.2872 14.571 54.3114 14.8595L54.5385 17.6517C54.562 17.9395 54.3477 18.1919 54.0592 18.2154C54.0455 18.2166 54.0308 18.217 54.0164 18.217Z" fill="#7AC241"/>
<path d="M96.6457 54.4392C96.3765 54.4392 96.1478 54.2324 96.1252 53.9588C96.1017 53.671 96.316 53.4185 96.6045 53.395L99.3962 53.168C99.6654 53.1445 99.9362 53.3583 99.9595 53.6468C99.983 53.9346 99.7687 54.187 99.4802 54.2105L96.6885 54.4376C96.6748 54.4388 96.6601 54.4392 96.6457 54.4392Z" fill="#7AC241"/>
<path d="M15.001 61.0738C14.7318 61.0738 14.5031 60.8665 14.4805 60.5933C14.457 60.3051 14.672 60.0531 14.9598 60.0296L17.7524 59.803C18.02 59.7799 18.2924 59.9937 18.3157 60.2818C18.339 60.5698 18.1242 60.822 17.8364 60.8455L15.0438 61.0721C15.0303 61.0735 15.0156 61.0738 15.001 61.0738Z" fill="#7AC241"/>
<defs>
<radialGradient id="paint0_radial_381_267" cx="0" cy="0" r="1" gradientUnits="userSpaceOnUse" gradientTransform="translate(57.5502 57.5502) rotate(-90) scale(57.5502)">
<stop offset="0.744792" stop-color="#7AC241" stop-opacity="0"/>
<stop offset="1" stop-color="#7AC241"/>
</radialGradient>
</defs>
</svg>
