<svg width="11" height="88" viewBox="0 0 11 88" fill="none" xmlns="http://www.w3.org/2000/svg">
<path d="M7.92242 87.0042H0.244869" stroke="#0166FE" stroke-width="1.37152"/>
<path d="M7.92242 83.4211H0.244869" stroke="#0166FE" stroke-width="1.37152"/>
<path d="M7.92242 79.8383H0.244869" stroke="#0166FE" stroke-width="1.37152"/>
<path d="M7.92242 76.2555H0.244869" stroke="#0166FE" stroke-width="1.37152"/>
<path d="M10.482 72.6726H0.245253" stroke="#0166FE" stroke-width="1.37152"/>
<path d="M7.92242 69.0898H0.244869" stroke="#0166FE" stroke-width="1.37152"/>
<path d="M7.92242 65.5068H0.244869" stroke="#0166FE" stroke-width="1.37152"/>
<path d="M7.92242 61.924H0.244869" stroke="#0166FE" stroke-width="1.37152"/>
<path d="M7.92242 58.3412H0.244869" stroke="#0166FE" stroke-width="1.37152"/>
<path d="M10.482 54.7582H0.245253" stroke="#0166FE" stroke-width="1.37152"/>
<path d="M7.92242 51.1756H0.244869" stroke="#0166FE" stroke-width="1.37152"/>
<path d="M7.92242 47.5926H0.244869" stroke="#0166FE" stroke-width="1.37152"/>
<path d="M7.92242 44.0096H0.244869" stroke="#0166FE" stroke-width="1.37152"/>
<path d="M7.92242 40.4269H0.244869" stroke="#0166FE" stroke-width="1.37152"/>
<path d="M10.482 36.8439H0.245253" stroke="#0166FE" stroke-width="1.37152"/>
<path d="M7.92242 33.5147H0.244869" stroke="#0166FE" stroke-width="1.37152"/>
<path d="M7.92242 29.9315H0.244869" stroke="#0166FE" stroke-width="1.37152"/>
<path d="M7.92242 26.3488H0.244869" stroke="#0166FE" stroke-width="1.37152"/>
<path d="M7.92242 22.766H0.244869" stroke="#0166FE" stroke-width="1.37152"/>
<path d="M10.482 19.1832H0.245253" stroke="#0166FE" stroke-width="1.37152"/>
<path d="M7.92242 15.6003H0.244869" stroke="#0166FE" stroke-width="1.37152"/>
<path d="M7.92242 12.0172H0.244869" stroke="#0166FE" stroke-width="1.37152"/>
<path d="M7.92242 8.43451H0.244869" stroke="#0166FE" stroke-width="1.37152"/>
<path d="M7.92242 4.85181L0.244869 4.85181" stroke="#0166FE" stroke-width="1.37152"/>
<path d="M10.482 1.2688L0.245253 1.2688" stroke="#0166FE" stroke-width="1.37152"/>
</svg>
