<svg width="24" height="24" viewBox="0 0 24 24" fill="none" xmlns="http://www.w3.org/2000/svg">
<path d="M11.9998 0C5.38311 0 0 5.38311 0 11.9999C0 18.6167 5.38311 24 11.9998 24C18.6168 24 23.9998 18.6167 23.9998 11.9999C23.9998 5.38311 18.6168 0 11.9998 0ZM11.9998 22.6274C6.13979 22.6274 1.37267 17.86 1.37267 12C1.37267 6.13999 6.13979 1.37267 11.9998 1.37267C17.8598 1.37267 22.6272 6.13999 22.6272 11.9999C22.6272 17.8599 17.8598 22.6274 11.9998 22.6274Z" fill="#333333"/>
<path d="M11.9998 2.5842C6.80805 2.5842 2.58417 6.80808 2.58417 12C2.58417 17.1918 6.80805 21.4158 11.9998 21.4158C17.1918 21.4158 21.4157 17.1919 21.4157 12C21.4157 6.80808 17.1918 2.5842 11.9998 2.5842ZM11.9998 20.7294C9.72048 20.7294 7.64343 19.8504 6.08715 18.4147L7.65739 17.8913L7.24804 17.482L10.2107 14.5171C10.716 14.8769 11.3324 15.0907 12 15.0907C13.7069 15.0907 15.0906 13.7069 15.0906 12H11.9999V8.90926C10.293 8.90926 8.90918 10.293 8.90918 12C8.90918 12.6675 9.12293 13.2839 9.48275 13.7891L6.52008 16.7541L6.15406 16.388L5.63013 17.96C4.16817 16.3985 3.2704 14.3026 3.2704 11.9999C3.2704 7.18655 7.18636 3.27048 11.9997 3.27048C11.9997 3.27048 11.9998 3.27048 11.9999 3.27048V8.90926C12.621 8.90926 13.1981 9.09424 13.6825 9.40952L15.343 7.74888L14.9337 7.33957L17.1886 6.58793L16.437 8.84285L16.0709 8.47678L14.44 10.1078C14.8463 10.631 15.0905 11.2863 15.0905 11.9999H20.7293C20.7294 16.8133 16.8132 20.7294 11.9998 20.7294Z" fill="#333333"/>
</svg>
