<svg width="39" height="33" viewBox="0 0 39 33" fill="none" xmlns="http://www.w3.org/2000/svg">
<path d="M31.1058 4.02081L20.2562 14.8704C20.3742 12.7958 19.1136 10.8433 17.3501 10.8433H7.59008C5.42634 10.8433 4.01889 13.7819 4.98691 16.28L8.85689 26.2703L6.23466 28.8925H0V33H7.93578L32.8069 8.12831H38.58V4.02081H31.1058Z" fill="#ED1C24"/>
<path d="M16.8009 5.03581C16.9984 2.64968 15.2242 0.55519 12.8381 0.357663C10.452 0.160136 8.35749 1.93437 8.15996 4.3205C7.96243 6.70663 9.73664 8.80109 12.1228 8.99862C14.5089 9.19614 16.6034 7.42194 16.8009 5.03581Z" fill="#ED1C24"/>
<path d="M27.412 22.3034H31.3253L23.8985 29.7302L26.8031 32.6348L34.2299 25.208V29.1212H38.3373V18.1959H27.412V22.3034Z" fill="#368BFF"/>
</svg>
