<svg width="42" height="25" viewBox="0 0 42 25" fill="none" xmlns="http://www.w3.org/2000/svg">
<path d="M31.9007 12.0482C32.3755 13.4547 33.2082 14.4182 34.5631 14.4182C35.918 14.4182 36.7507 13.4547 37.2269 12.0482C37.6403 12.0803 37.9301 11.611 38.1204 10.9922C38.4087 10.0515 38.1001 9.71525 37.6872 9.59875C37.6872 9.59109 37.6882 9.58323 37.6882 9.57547L37.6902 9.57816C37.6902 9.57816 37.8623 8.20844 37.6033 7.49214C37.4628 7.10644 37.2324 6.98646 37.0316 6.96258C36.6053 6.17436 35.5482 5.9353 34.9879 5.80596C32.2168 5.16289 32.1837 6.89931 32.1837 6.89931C32.1837 6.89931 31.523 6.74998 31.4336 7.51174C31.3425 8.27619 31.437 9.57826 31.437 9.57826L31.438 9.57557C31.4395 9.58323 31.4395 9.59119 31.4395 9.59885C31.0267 9.71535 30.7161 10.0516 31.0064 10.9923C31.1966 11.611 31.4859 12.0803 31.9007 12.0482Z" fill="#333333"/>
<path d="M4.7742 12.0482C5.24934 13.4547 6.08214 14.4182 7.43703 14.4182C8.79192 14.4182 9.62462 13.4547 10.0994 12.0482C10.5147 12.0803 10.8045 11.6111 10.9939 10.9923C11.2836 10.0515 10.9731 9.71525 10.5613 9.59876C10.5613 9.5911 10.5613 9.58324 10.5623 9.57548L10.5638 9.57816C10.5638 9.57816 10.6582 8.2762 10.5667 7.51165C10.4773 6.74989 9.81712 6.89922 9.81712 6.89922C9.81712 6.89922 9.7835 5.1628 7.01292 5.80587C6.45212 5.9352 5.3935 6.17427 4.96919 6.96249C4.76744 6.98647 4.53653 7.10635 4.39715 7.49205C4.13749 8.20825 4.3101 9.57806 4.3101 9.57806L4.31209 9.57538C4.31209 9.58304 4.31259 9.591 4.31259 9.59866C3.90012 9.71516 3.59162 10.0514 3.87993 10.9922C4.06964 11.6111 4.35885 12.0803 4.7742 12.0482Z" fill="#333333"/>
<path d="M24.6194 13.8387L22.5722 20.8286L21.5971 15.845L22.5035 13.8388H21.0003H19.496L20.4029 15.845L19.4278 20.8286L17.3807 13.8387L12.3488 15.6518C11.9917 16.5232 10.8767 23.6285 10.8767 23.6285C10.8767 23.6285 16.0051 24.7344 21.0009 24.7344C27.6754 24.7344 31.1244 23.6285 31.1244 23.6285C31.1244 23.6285 30.0104 16.5232 29.6518 15.6518L24.6194 13.8387Z" fill="#333333"/>
<path d="M10.176 23.7044L10.2042 23.5219C10.3585 22.5386 11.0296 18.3115 11.4701 16.3247L10.0974 15.8309L8.59167 20.965L7.87517 17.3043L8.54173 15.8309H7.43704H6.33384L6.99741 17.3043L6.28142 20.965L4.77869 15.831L1.08091 17.1616C0.818368 17.8012 0 23.0205 0 23.0205C0 23.0205 2.5332 23.8349 7.43704 23.8349C8.36424 23.8349 9.29732 23.7828 10.176 23.7044Z" fill="#333333"/>
<path d="M40.9197 17.1617L37.2224 15.831L35.7192 20.9651L35.0021 17.3044L35.6667 15.831H34.563H33.4583L34.1248 17.3044L33.4069 20.9651L31.9041 15.831L30.5319 16.3248C30.9715 18.3131 31.6411 22.5388 31.7973 23.5221L31.8265 23.7045C32.7027 23.7829 33.6359 23.835 34.563 23.835C39.4667 23.835 42 23.0207 42 23.0207C42 23.0207 41.1813 17.8013 40.9197 17.1617Z" fill="#333333"/>
<path d="M17.3767 8.69215C18.0225 10.6051 19.1554 11.9175 21.0004 11.9175C22.8452 11.9175 23.9777 10.6051 24.6259 8.69215C25.1891 8.73493 25.5853 8.09653 25.8428 7.25319C26.2364 5.97301 25.8161 5.51627 25.2519 5.3561C25.2524 5.34625 25.2539 5.3358 25.2539 5.32496L25.2559 5.32715C25.2559 5.32715 25.4927 3.46468 25.1382 2.48883C24.9483 1.96474 24.6328 1.80128 24.3588 1.76835C23.7813 0.694607 22.3412 0.370682 21.5803 0.194195C17.8064 -0.680084 17.7608 1.68111 17.7608 1.68111C17.7608 1.68111 17.7628 1.68111 17.7628 1.6828H17.7608V1.68111C17.7608 1.68111 16.8624 1.47736 16.7402 2.51758C16.6185 3.55501 16.7447 5.32725 16.7447 5.32725L16.7467 5.32506C16.7472 5.3359 16.7482 5.34635 16.7482 5.3562C16.1845 5.51637 15.7641 5.97311 16.1582 7.25329C16.4174 8.09643 16.8114 8.73493 17.3767 8.69215Z" fill="#333333"/>
</svg>
