<svg width="26" height="33" viewBox="0 0 26 33" fill="none" xmlns="http://www.w3.org/2000/svg">
<path d="M6.75216 6.91277C8.66107 6.91277 10.2085 5.36529 10.2085 3.45639C10.2085 1.54748 8.66107 0 6.75216 0C4.84326 0 3.29578 1.54748 3.29578 3.45639C3.29578 5.36529 4.84326 6.91277 6.75216 6.91277Z" fill="#ED1C24"/>
<path d="M25.3521 20.1793L18.7922 13.9101C18.2106 13.3532 17.486 13.0065 16.7237 12.8808H12.9145L8.59801 8.76028C8.03366 8.13595 7.14563 7.9351 6.38125 8.25876L5.99392 8.42265C5.23364 8.74468 4.76006 9.51645 4.81017 10.3519L4.74075 16.3996C4.69352 20.5095 8.87855 23.3173 12.6635 21.715L18.0833 19.4202L22.7304 23.2475C23.4824 23.8554 24.5894 23.8616 25.3632 23.1691C26.2365 22.3866 26.1913 20.9983 25.3521 20.1793Z" fill="#ED1C24"/>
<path d="M19.497 23.3995C18.0804 22.4913 16.3228 22.3673 14.7932 23.0684L12.8607 23.8706C10.5905 24.8371 8.00738 24.6013 5.94916 23.2405C3.89094 21.8797 2.66242 19.5944 2.66242 17.1271V8.10638H0V17.1271C0 20.4906 1.67541 23.6061 4.48077 25.4614C6.14386 26.5614 8.05873 27.122 9.98716 27.122C11.3118 27.122 12.643 26.8571 13.9027 26.3207L15.6492 25.5842L15.9035 25.4889C16.6153 25.162 17.4014 25.2183 18.0594 25.6405C18.7183 26.0631 19.0957 26.754 19.0957 27.5369C19.0957 28.7794 18.0849 29.7902 16.8424 29.7902H4.74077V32.4526H16.8424C19.5529 32.4526 21.7582 30.2474 21.7582 27.5369C21.7577 25.8541 20.9129 24.3076 19.497 23.3995Z" fill="#368BFF"/>
</svg>
