<svg width="39" height="34" viewBox="0 0 39 34" fill="none" xmlns="http://www.w3.org/2000/svg">
<path d="M32.0884 28.5986L29.4871 25.9972L33.3268 16.0864C34.2866 13.6082 32.8908 10.693 30.7443 10.693H21.0614C19.3115 10.693 18.0614 12.63 18.1779 14.6881L7.41522 3.92485H0V7.99967H5.72711L30.4003 32.6734H38.273V28.5986H32.0884Z" fill="#ED1C24"/>
<path d="M30.1849 4.82667C30.3324 2.45597 28.5301 0.414576 26.1594 0.267076C23.7887 0.119575 21.7473 1.92182 21.5998 4.29252C21.4523 6.66322 23.2546 8.70465 25.6253 8.85215C27.996 8.99965 30.0374 7.19737 30.1849 4.82667Z" fill="#ED1C24"/>
<path d="M11.0868 26.2226L3.71913 18.8549L0.837158 21.7369L8.20484 29.1045H4.32323V33.1794H15.1616V22.341H11.0868V26.2226Z" fill="#368BFF"/>
</svg>
